<?xml version="1.0" standalone="no"?><!DOCTYPE svg PUBLIC "-//W3C//DTD SVG 1.1//EN" "http://www.w3.org/Graphics/SVG/1.1/DTD/svg11.dtd"><svg t="1552828364255" class="icon" style="" viewBox="0 0 1024 1024" version="1.1" xmlns="http://www.w3.org/2000/svg" p-id="1377" xmlns:xlink="http://www.w3.org/1999/xlink" width="32" height="32"><defs><style type="text/css"></style></defs><path d="M512 64a448 448 0 1 0 0 896A448 448 0 0 0 512 64z m324.672 228.8a388.288 388.288 0 0 1 66.24 191.168h-224.128a1081.088 1081.088 0 0 0-14.08-151.424c60.672-8.512 118.4-21.888 171.968-39.744z m-38.528-48.32c-45.76 14.464-94.016 25.472-144.32 32.896a919.04 919.04 0 0 0-45.696-145.024 392.704 392.704 0 0 1 190.016 112.128z m-396.8 239.552c1.472-49.344 5.952-97.792 14.4-144.384 31.488 2.752 63.552 4.352 96.256 4.352s64.768-1.6 96.256-4.352c8.512 46.592 12.992 95.04 14.464 144.384H401.344z m221.312 56a965.504 965.504 0 0 1-14.4 144.384A1079.296 1079.296 0 0 0 512 680c-32.704 0-64.768 1.6-96.256 4.352a973.12 973.12 0 0 1-14.4-144.32h221.312zM484.8 121.344c9.024-0.576 17.984-1.344 27.2-1.344s18.176 0.768 27.2 1.344c23.808 49.664 43.136 104.896 57.408 163.456-27.84 2.432-56.064 3.904-84.608 3.904s-56.768-1.472-84.608-3.904c14.272-58.56 33.6-113.792 57.408-163.456z m-68.928 11.008c-18.688 45.056-33.92 93.696-45.632 145.024a920.704 920.704 0 0 1-144.384-32.896 392.96 392.96 0 0 1 190.016-112.128zM187.328 292.8c53.632 17.792 111.296 31.168 171.968 39.744-8.32 48.576-12.672 99.392-14.08 151.488H121.088a388.288 388.288 0 0 1 66.24-191.232z m0 438.4a388.288 388.288 0 0 1-66.24-191.168h224.128c1.408 52.032 5.76 102.848 14.016 151.424-60.608 8.576-118.272 21.888-171.904 39.744z m38.528 48.32a934.528 934.528 0 0 1 144.32-32.896c11.712 51.264 27.008 100.032 45.632 145.024a393.088 393.088 0 0 1-189.952-112.128z m313.344 123.136c-9.024 0.576-17.984 1.344-27.2 1.344s-18.176-0.768-27.2-1.344a832.192 832.192 0 0 1-57.408-163.456c27.84-2.432 56.064-3.904 84.608-3.904s56.768 1.408 84.608 3.904a837.888 837.888 0 0 1-57.408 163.456z m68.928-11.008c18.624-44.992 33.92-93.76 45.696-145.024 50.304 7.424 98.56 18.432 144.32 32.896a392.704 392.704 0 0 1-190.016 112.128z m228.544-160.448a988.992 988.992 0 0 0-171.968-39.744c8.256-48.576 12.608-99.392 14.08-151.424h224.128a388.288 388.288 0 0 1-66.24 191.168z" fill="#ffffff" p-id="1378"></path></svg>