<?xml version="1.0" standalone="no"?><!DOCTYPE svg PUBLIC "-//W3C//DTD SVG 1.1//EN" "http://www.w3.org/Graphics/SVG/1.1/DTD/svg11.dtd"><svg t="1552828590321" class="icon" style="" viewBox="0 0 1024 1024" version="1.1" xmlns="http://www.w3.org/2000/svg" p-id="1759" xmlns:xlink="http://www.w3.org/1999/xlink" width="32" height="32"><defs><style type="text/css"></style></defs><path d="M588.8 6.4c-6.4-6.4-25.6-6.4-32 0L179.2 288H32c-19.2 0-32 12.8-32 32v384c0 19.2 12.8 32 32 32h147.2l377.6 281.6c6.4 6.4 12.8 6.4 19.2 6.4 6.4 0 12.8 0 12.8-6.4 12.8-6.4 19.2-19.2 19.2-25.6V32c0-12.8-6.4-25.6-19.2-25.6zM64 352h96v320H64v-320z m480 576l-320-243.2V332.8l320-236.8v832zM755.2 307.2c-12.8-12.8-32-6.4-44.8 6.4-6.4 12.8-6.4 32 6.4 44.8 38.4 32 64 89.6 64 153.6s-25.6 121.6-64 153.6c-12.8 12.8-19.2 32-6.4 44.8 6.4 6.4 12.8 12.8 25.6 12.8 6.4 0 12.8 0 19.2-6.4 57.6-44.8 89.6-121.6 89.6-204.8 0-83.2-32-160-89.6-204.8z" fill="#ffffff" p-id="1760"></path><path d="M806.4 96c-12.8-6.4-32 0-44.8 12.8-6.4 12.8 0 32 12.8 44.8C883.2 204.8 960 352 960 512c0 153.6-70.4 300.8-179.2 358.4-12.8 6.4-19.2 25.6-12.8 44.8 6.4 12.8 19.2 19.2 25.6 19.2 6.4 0 12.8 0 12.8-6.4 128-70.4 211.2-230.4 211.2-416 6.4-185.6-76.8-352-211.2-416z" fill="#ffffff" p-id="1761"></path></svg>