<?xml version="1.0" standalone="no"?><!DOCTYPE svg PUBLIC "-//W3C//DTD SVG 1.1//EN" "http://www.w3.org/Graphics/SVG/1.1/DTD/svg11.dtd"><svg t="1552828788973" class="icon" style="" viewBox="0 0 1024 1024" version="1.1" xmlns="http://www.w3.org/2000/svg" p-id="4087" xmlns:xlink="http://www.w3.org/1999/xlink" width="32" height="32"><defs><style type="text/css"></style></defs><path d="M896.174 63.868l-832.162 0.078v831.693h384.075V831.72l-320.062 0.044-0.035-703.774h704.171v320.218h64.012V63.868z" p-id="4088" fill="#ffffff"></path><path d="M192.08 255.953h384.075v63.919H192.08zM192.08 447.639l320.063 0.07V383.79H192.08zM192.08 575.956h192.038v-63.891l-192.038-0.027zM745.221 532.624c-118.832 0-215.172 95.586-215.172 213.5s96.332 213.504 215.172 213.504c118.839 0 215.175-95.59 215.175-213.504 0-117.918-96.343-213.5-215.175-213.5z m0 362.719c-82.924 0-150.387-66.94-150.387-149.219 0-82.283 67.463-149.219 150.387-149.219 82.927 0 150.386 66.94 150.386 149.219-0.001 82.276-67.46 149.219-150.386 149.219z" p-id="4089" fill="#ffffff"></path><path d="M704.137 801.479h128.025v-63.891l-128.025-0.028z" p-id="4090" fill="#ffffff"></path><path d="M704.137 673.548v128.025h63.891l0.027-128.025z" p-id="4091" fill="#ffffff"></path></svg>