<?xml version="1.0" standalone="no"?><!DOCTYPE svg PUBLIC "-//W3C//DTD SVG 1.1//EN" "http://www.w3.org/Graphics/SVG/1.1/DTD/svg11.dtd"><svg t="1499237418982" class="icon" style="" viewBox="0 0 1024 1024" version="1.1" xmlns="http://www.w3.org/2000/svg" p-id="2675" xmlns:xlink="http://www.w3.org/1999/xlink" width="40" height="40"><defs><style type="text/css"></style></defs><path d="M820.222897 587.863828l-6.848988-2.718925 5.814426-4.53734c43.193755-33.735335 67.972091-84.146469 67.972091-138.303926 0-97.014544-79.4454-175.942151-177.11793-175.942151S532.911262 345.289094 532.911262 442.303638c0 54.149271 24.778336 104.553241 67.972091 138.303926l5.814426 4.53734-6.848988 2.718925c-114.112967 45.318138-187.853435 153.201218-187.853435 274.836509l0 60.057841c0 14.231119 11.660574 25.804712 25.985838 25.804712L982.091518 948.56289c14.325263 0 25.985838-11.574616 25.985838-25.804712l0-60.057841C1008.092705 741.064023 934.352237 633.180943 820.222897 587.863828zM584.897264 442.303638c0-68.560492 56.139601-124.33989 125.146255-124.33989s125.146255 55.779398 125.146255 124.33989-56.139601 124.33989-125.146255 124.33989S584.897264 510.863107 584.897264 442.303638zM956.090331 896.953466l-492.107951 0 0-34.253128c0-134.792962 110.398366-244.455571 246.092861-244.455571 135.647423 0 246.01509 109.661585 246.01509 244.455571L956.090331 896.953466zM360.557846 451.644377 234.67481 577.472154 275.423887 607.462189 415.632185 467.262076 415.632185 243.447615 360.557846 243.447615ZM84.10656 504.037654c-17.256012-80.401168-2.178619-162.713872 42.473347-231.775784 44.635593-69.070098 113.502054-116.612904 193.918571-133.87608 21.361517-4.584412 43.210128-6.919597 64.916499-6.919597 82.20321 0 162.181753 33.758871 219.919758 92.719728l60.779272-21.74628c-69.304436-81.905428-173.701111-130.61685-280.604886-130.61685-25.875321 0-51.955302 2.78237-77.532841 8.275477-95.807043 20.578688-177.964204 77.360925-231.2979 159.89364C23.328311 322.516438 5.288446 420.729274 25.867134 516.53734c31.110555 144.855132 144.722102 255.959579 289.86683 283.801694l38.084387-54.580083C220.381269 732.593094 112.521726 636.347053 84.10656 504.037654z" p-id="2676" fill="#ffffff"></path></svg>