<?xml version="1.0" standalone="no"?><!DOCTYPE svg PUBLIC "-//W3C//DTD SVG 1.1//EN" "http://www.w3.org/Graphics/SVG/1.1/DTD/svg11.dtd"><svg t="1499245708503" class="icon" style="" viewBox="0 0 1024 1024" version="1.1" xmlns="http://www.w3.org/2000/svg" p-id="4615" xmlns:xlink="http://www.w3.org/1999/xlink" width="40" height="40"><defs><style type="text/css"></style></defs><path d="M672 454.4l-192 192-108.8-115.2c-19.2-19.2-51.2 12.8-32 32L448 672c25.6 25.6 38.4 25.6 64 0l192-192c25.6-19.2-6.4-51.2-32-25.6z" p-id="4616" fill="#ffffff"></path><path d="M876.8 518.4l32 25.6 38.4-44.8c19.2-25.6 12.8-64-12.8-83.2-25.6-19.2-64-12.8-83.2 12.8l-38.4 44.8 32 25.6 32 19.2z" p-id="4617" fill="#ffffff"></path><path d="M870.4 531.2l-256 326.4-32-19.2 192-249.6 25.6-32 38.4-51.2-32-19.2-57.6 70.4-25.6 32-179.2 224-32 140.8 134.4-70.4 256-326.4z" p-id="4618" fill="#ffffff"></path><path d="M832 729.6v25.6c0 32-38.4 64-70.4 64l-32 44.8h32c57.6 0 115.2-51.2 115.2-108.8v-89.6l-44.8 64zM512 825.6H179.2c-32 0-70.4-38.4-70.4-64V332.8H832V384l44.8-64V217.6c0-57.6-51.2-108.8-115.2-108.8h-115.2v-25.6c6.4-12.8-6.4-19.2-19.2-19.2-12.8 0-19.2 6.4-19.2 19.2v19.2H332.8v-19.2c0-12.8-6.4-19.2-19.2-19.2s-25.6 6.4-25.6 19.2v19.2H179.2c-64 6.4-115.2 57.6-115.2 115.2v537.6c0 57.6 51.2 108.8 115.2 108.8h300.8l32-38.4zM108.8 217.6c0-32 38.4-64 70.4-64h115.2v44.8c0 12.8 6.4 19.2 25.6 19.2s12.8-6.4 12.8-25.6v-38.4h268.8V192c0 12.8 6.4 25.6 25.6 25.6 12.8 0 25.6-6.4 25.6-19.2v-44.8H768c32 0 70.4 38.4 70.4 64v64H108.8v-64z" p-id="4619" fill="#ffffff"></path></svg>