<?xml version="1.0" standalone="no"?><!DOCTYPE svg PUBLIC "-//W3C//DTD SVG 1.1//EN" "http://www.w3.org/Graphics/SVG/1.1/DTD/svg11.dtd"><svg t="1499245928835" class="icon" style="" viewBox="0 0 1024 1024" version="1.1" xmlns="http://www.w3.org/2000/svg" p-id="7414" xmlns:xlink="http://www.w3.org/1999/xlink" width="40" height="40"><defs><style type="text/css"></style></defs><path d="M700.315978 351.766174l-373.921729 0c-29.086957 0-52.75595-23.664007-52.75595-52.750964L273.6383 160.159026c0-29.086957 23.664007-52.745977 52.75595-52.745977l63.781368 0C398.449668 46.830599 450.533671 0 513.351374 0c62.82269 0 114.905447 46.830599 123.183236 107.413049l63.786354 0c29.080723 0 52.750964 23.65902 52.750964 52.745977l0 138.857431C753.066942 328.102167 729.401688 351.766174 700.315978 351.766174L700.315978 351.766174zM326.393003 158.474795c-0.932498 0-1.689218 0.757966-1.689218 1.684231l0 138.857431c0 0.931251 0.75672 1.689218 1.689218 1.689218l373.921729 0c0.931251 0 1.689218-0.757966 1.689218-1.689218L702.003949 160.159026c0-0.926265-0.757966-1.684231-1.689218-1.684231l-116.405173 0 2.403551-27.736829c0.200711-2.361165 0.301691-4.458039 0.301691-6.411547 0-40.391625-32.861828-73.259687-73.264673-73.259687-40.391625 0-73.259687 32.861828-73.259687 73.259687 0 1.953509 0.094746 4.050382 0.300444 6.411547l2.399811 27.736829L326.393003 158.474795 326.393003 158.474795zM326.393003 158.474795" p-id="7415" fill="#ffffff"></path><path d="M296.506941 801.632884 728.935439 801.632884l0 51.066733L296.506941 852.699617 296.506941 801.632884 296.506941 801.632884zM296.506941 801.632884" p-id="7416" fill="#ffffff"></path><path d="M296.506941 638.863362 728.935439 638.863362l0 51.066733L296.506941 689.930095 296.506941 638.863362 296.506941 638.863362zM296.506941 638.863362" p-id="7417" fill="#ffffff"></path><path d="M296.506941 476.087607 728.935439 476.087607l0 51.066733L296.506941 527.154339 296.506941 476.087607 296.506941 476.087607zM296.506941 476.087607" p-id="7418" fill="#ffffff"></path><path d="M843.307318 1024 180.685203 1024c-35.297792 0-64.019479-28.72044-64.019479-64.018232L116.665724 268.780085c0-35.302779 28.721687-64.018232 64.019479-64.018232l90.770204 0 0-44.050558c0-29.182949 23.74878-52.925495 52.935469-52.925495l63.998286 0C396.69687 46.99017 448.961639 0 511.99626 0s115.30313 46.99017 123.605852 107.784553l64.003272 0c29.186689 0 52.931729 23.742546 52.931729 52.925495l0 44.050558 90.770204 0c35.302779 0 64.025712 28.72044 64.025712 64.018232l0 691.201683C907.331783 995.27956 878.60511 1024 843.307318 1024L843.307318 1024zM180.685203 256.00187c-7.048588 0-12.778215 5.729627-12.778215 12.778215l0 691.201683c0 7.047341 5.72838 12.778215 12.778215 12.778215l662.622115 0c7.047341 0 12.783201-5.729627 12.783201-12.778215L856.090519 268.780085c0-7.047341-5.73586-12.778215-12.783201-12.778215L701.294603 256.00187l0-95.291822c0-0.932498-0.75672-1.689218-1.689218-1.689218l-116.812829 0 2.421004-27.832822c0.200711-2.367398 0.295457-4.469259 0.295457-6.433987 0-40.53499-32.979014-73.512758-73.512758-73.512758-40.536237 0-73.514004 32.979014-73.514004 73.512758 0 1.964728 0.102226 4.066589 0.301691 6.433987l2.414771 27.832822-116.807842 0c-0.931251 0-1.694204 0.75672-1.694204 1.689218l0 95.291822L180.685203 256.00187 180.685203 256.00187zM180.685203 256.00187" p-id="7419" fill="#ffffff"></path></svg>