<?xml version="1.0" standalone="no"?><!DOCTYPE svg PUBLIC "-//W3C//DTD SVG 1.1//EN" "http://www.w3.org/Graphics/SVG/1.1/DTD/svg11.dtd"><svg t="1499237467225" class="icon" style="" viewBox="0 0 1024 1024" version="1.1" xmlns="http://www.w3.org/2000/svg" p-id="3402" xmlns:xlink="http://www.w3.org/1999/xlink" width="40" height="40"><defs><style type="text/css"></style></defs><path d="M690.762895 494.471788l-242.380306 235.724723L333.733409 618.733906c-9.902534-9.612938-25.940812-9.612938-35.898605 0-9.960863 9.670244-9.960863 25.303292 0 34.915207l125.764332 122.291231c6.136767 6.02011 14.648628 7.813966 22.582321 6.369058 9.149381 3.243881 19.686365 1.444908 26.925233-5.618974l254.019391-246.895133c9.958816-9.784854 9.958816-25.533536 0-35.322483C717.051631 484.745263 700.840414 484.745263 690.762895 494.471788z" p-id="3403" fill="#ffffff"></path><path d="M830.079894 141.494595l-95.482655 0L734.597239 93.319385c0-9.784854-8.16496-17.715477-18.241456-17.715477l-14.359033 0c-10.076496 0-18.238386 7.931646-18.238386 17.715477l0 48.175209L341.203544 141.494595 341.203544 93.319385c0-9.784854-8.163937-17.715477-18.23941-17.715477l-14.361079 0c-10.075473 0-18.23941 7.931646-18.23941 17.715477l0 48.175209-95.483678 0c-70.062705 0-127.0977 55.414077-127.0977 123.505895l0 568.203046c0 68.155263 57.034994 123.56627 127.0977 123.56627l635.198903 0c70.061682 0 127.09463-55.411007 127.09463-123.56627L957.1735 265.00049C957.174524 196.908672 900.141576 141.494595 830.079894 141.494595zM194.880991 190.884468l95.483678 0 0 39.954991c0 9.784854 8.163937 17.720593 18.23941 17.720593l14.361079 0c10.075473 0 18.23941-7.93574 18.23941-17.720593l0-39.954991 342.553797 0 0 39.954991c0 9.784854 8.162914 17.720593 18.238386 17.720593l14.359033 0c10.077519 0 18.241456-7.93574 18.241456-17.720593l0-39.954991 95.482655 0c42.034349 0 76.315106 33.239032 76.315106 74.114998l0 98.841146L118.566908 363.840612l0-98.841146C118.566908 224.124524 152.844595 190.884468 194.880991 190.884468zM830.079894 907.319557 194.880991 907.319557c-42.036395 0-76.314083-33.234939-76.314083-74.116021L118.566908 413.580456l787.828093 0 0 419.62308C906.395 874.084619 872.114243 907.319557 830.079894 907.319557z" p-id="3404" fill="#ffffff"></path></svg>