<?xml version="1.0" standalone="no"?><!DOCTYPE svg PUBLIC "-//W3C//DTD SVG 1.1//EN" "http://www.w3.org/Graphics/SVG/1.1/DTD/svg11.dtd"><svg t="1499246009817" class="icon" style="" viewBox="0 0 1024 1024" version="1.1" xmlns="http://www.w3.org/2000/svg" p-id="8802" xmlns:xlink="http://www.w3.org/1999/xlink" width="40" height="40"><defs><style type="text/css"></style></defs><path d="M660.3 450c-3.1 8.2-32.8 59.4-38.9 65.6-7.2 7.2-12.3 69.7-3.1 96.3 5.1 14.3 16.4 43 38.9 67.6l43-61.5c-6.1-8.2-9.2-14.3-11.3-17.4-5.1-9.2-5.1-44.1-5.1-49.2 1-5.1 8.2-17.4 8.2-17.4 28.7-32.8 60.5-111.7 60.5-111.7 56.4-73.8 5.1-116.8 5.1-116.8 2-10.2 6.1-101.5 3.1-122-4.1-20.5-7.2-65.6-55.3-123C656.2 3.1 567 1.1 567 1.1l-36.9 0-36.9 0c0 0-89.2 2-138.4 59.4s-52.3 102.5-55.3 123c-4.1 20.5 1 111.7 3.1 122 0 0-51.2 43 7.2 116.8 0 0 32.8 79.9 60.5 111.7 0 0 7.2 12.3 7.2 17.4 1 5.1 1 40-5.1 49.2-5.1 9.2-34.8 58.4-75.8 63.5-41 4.1-94.3-8.2-124 13.3C143.7 699 40.2 783.1 21.8 853.8c-18.4 70.7-22.5 149.6 46.1 169.1l546.3 0 0-55.3c-42 0-74.8 0-85.1 0-40 1-393.6 1-424.3-6.1-32.8-8.2-20.5-38.9-13.3-82 7.2-43 83-113.8 112.7-133.2 30.7-19.5 38.9-11.3 117.9-22.5C403 711.3 433.8 638.6 443 613c8.2-26.6 4.1-90.2-3.1-96.3-7.2-7.2-36.9-58.4-40-66.6-3.1-8.2-16.4-40-16.4-40-46.1-54.3-21.5-79.9-17.4-83 4.1-3.1 5.1-20.5 4.1-56.4-1-34.8-5.1-53.3 8.2-124s125-87.1 125-87.1l53.3 0c0 0 112.7 16.4 125 87.1 12.3 70.7 9.2 89.2 8.2 124-1 34.8 0 53.3 4.1 56.4 4.1 3.1 28.7 28.7-17.4 83C676.7 410 663.4 441.8 660.3 450zM956.5 735.9l-14.3 0 0-53.3c0-63.5-47.1-113.8-114.8-113.8s-113.8 51.2-113.8 113.8l0 53.3-14.3 0c-31.8 0-57.4 24.6-57.4 55.3l0 167.1c0 30.7 25.6 55.3 57.4 55.3l257.3 0c31.8 0 57.4-24.6 57.4-55.3L1014 791.3C1013.9 760.5 988.2 735.9 956.5 735.9zM748.4 682.6c0-47.1 31.8-84 79.9-84 48.2 0 79.9 35.9 79.9 84l0 53.3L748.4 735.9 748.4 682.6zM972.9 952.2c0 14.3-12.3 25.6-26.6 25.6L709.5 977.8c-14.3 0-26.6-11.3-26.6-25.6L682.9 798.5c0-14.3 12.3-25.6 26.6-25.6l236.8 0c14.3 0 26.6 11.3 26.6 25.6L972.9 952.2zM828.4 821c-13.3 0-23.6 10.2-23.6 22.5 0 8.2 5.1 16.4 12.3 19.5L817.1 901c0 6.1 5.1 11.3 12.3 11.3 6.1 0 12.3-5.1 12.3-11.3L841.7 863c7.2-4.1 12.3-11.3 12.3-19.5C851.9 831.3 841.7 821 828.4 821z" p-id="8803" fill="#ffffff"></path></svg>