<?xml version="1.0" standalone="no"?><!DOCTYPE svg PUBLIC "-//W3C//DTD SVG 1.1//EN" "http://www.w3.org/Graphics/SVG/1.1/DTD/svg11.dtd"><svg t="1505968909397" class="icon" style="" viewBox="0 0 1024 1024" version="1.1" xmlns="http://www.w3.org/2000/svg" p-id="16492" xmlns:xlink="http://www.w3.org/1999/xlink" width="40" height="40"><defs><style type="text/css"></style></defs><path d="M90.584615 787.692308V200.861538c0-63.015385 47.261538-114.215385 102.4-114.215384h606.523077c55.138462 0 106.338462 55.138462 110.276923 122.092308v350.523076h78.769231v-354.461538c-7.876923-114.215385-90.584615-196.923077-189.046154-196.923077h-606.523077c-98.461538 0-181.169231 86.646154-181.16923 192.984615V787.692308c0 106.338462 82.707692 192.984615 181.16923 192.984615h350.523077v-78.769231h-350.523077c-55.138462-3.938462-102.4-55.138462-102.4-114.215384z" fill="#ffffff" p-id="16493"></path><path d="M393.846154 563.2l11.815384 11.815385h3.938462l27.569231 31.507692 271.753846-248.123077-55.138462-59.076923-212.676923 196.923077-106.338461-126.030769-63.015385 51.2 110.276923 126.030769zM834.953846 618.338462h-78.769231v137.846153h-137.846153v78.769231h137.846153v141.784616h78.769231v-141.784616h137.846154v-78.769231h-137.846154z" fill="#ffffff" p-id="16494"></path></svg>