<?xml version="1.0" standalone="no"?><!DOCTYPE svg PUBLIC "-//W3C//DTD SVG 1.1//EN" "http://www.w3.org/Graphics/SVG/1.1/DTD/svg11.dtd"><svg t="1505968940760" class="icon" style="" viewBox="0 0 1024 1024" version="1.1" xmlns="http://www.w3.org/2000/svg" p-id="16687" xmlns:xlink="http://www.w3.org/1999/xlink" width="40" height="40"><defs><style type="text/css"></style></defs><path d="M627.95264 968.41216 110.94016 968.41216c-28.7232 0-52.13184-24.59136-52.13184-54.49728L58.80832 319.78496 315.93984 50.39616l379.56096 0c32.128-3.6096 55.68 21.04832 52.13696 51.01568l0.32256 307.42528-0.38912 0 0 46.62272-62.03392 0-9.5744 0 0-46.62272L675.96288 121.87648 331.41248 121.87648 331.41248 337.1008 130.61632 337.1008l0 559.69792 497.33632 0L627.95264 968.41216 627.95264 968.41216zM977.15712 673.57696l-164.33664 0L812.82048 509.24032l-130.29888 0 0 164.27008-164.53632 0 0 130.29888 164.33664 0 0 164.53632 130.36544 0 0-164.33664 164.46976 0L977.15712 673.57696 977.15712 673.57696z" p-id="16688" fill="#ffffff"></path></svg>