<?xml version="1.0" standalone="no"?><!DOCTYPE svg PUBLIC "-//W3C//DTD SVG 1.1//EN" "http://www.w3.org/Graphics/SVG/1.1/DTD/svg11.dtd"><svg t="1505968991646" class="icon" style="" viewBox="0 0 1047 1024" version="1.1" xmlns="http://www.w3.org/2000/svg" p-id="17674" xmlns:xlink="http://www.w3.org/1999/xlink" width="40.8984375" height="40"><defs><style type="text/css"></style></defs><path d="M957.32093 135.739535H833.488372V35.72093c0-19.051163-16.669767-35.72093-35.72093-35.72093S762.046512 16.669767 762.046512 35.72093v100.018605H285.767442V35.72093c0-19.051163-16.669767-35.72093-35.72093-35.72093S214.325581 16.669767 214.325581 35.72093v100.018605H90.493023c-40.483721 0-71.44186 33.339535-71.44186 73.823256v726.325581c0 40.483721 33.339535 73.823256 71.44186 73.823256h869.209303c40.483721 0 71.44186-33.339535 71.44186-73.823256V207.181395c0-38.102326-33.339535-71.44186-73.823256-71.44186z m26.195349 800.148837c0 14.288372-11.906977 26.195349-23.813953 26.195349H90.493023c-14.288372 0-23.813953-11.906977-23.813953-26.195349V428.651163h919.218604v507.237209z m0-554.865116H64.297674V207.181395c0-14.288372 11.906977-26.195349 23.813954-26.195348H214.325581c2.381395 19.051163 16.669767 33.339535 35.720931 33.339534s33.339535-14.288372 35.72093-30.958139h476.27907a36.054326 36.054326 0 0 0 71.44186 0h126.213954c14.288372 0 23.813953 11.906977 23.813953 26.195349V381.023256z" p-id="17675" fill="#ffffff"></path><path d="M445.32093 843.013953c-9.525581 0-16.669767-2.381395-23.813953-9.525581l-164.316279-161.934884c-14.288372-14.288372-14.288372-35.72093 0-50.009302s35.72093-14.288372 50.009302 0l140.502326 138.12093 276.24186-273.860465c14.288372-14.288372 35.72093-14.288372 50.009302 0 14.288372 14.288372 14.288372 35.72093 0 50.009302L469.134884 833.488372c-4.762791 7.144186-14.288372 9.525581-23.813954 9.525581z" p-id="17676" fill="#ffffff"></path></svg>