<?xml version="1.0" standalone="no"?><!DOCTYPE svg PUBLIC "-//W3C//DTD SVG 1.1//EN" "http://www.w3.org/Graphics/SVG/1.1/DTD/svg11.dtd"><svg t="1505969035547" class="icon" style="" viewBox="0 0 1024 1024" version="1.1" xmlns="http://www.w3.org/2000/svg" p-id="18402" xmlns:xlink="http://www.w3.org/1999/xlink" width="40" height="40"><defs><style type="text/css"></style></defs><path d="M858.46205 949.319397H165.41632c-49.868155 0-90.492458-40.624302-90.492457-90.492458V165.781209c0-49.868155 40.624302-90.492458 90.492457-90.492457h506.344222c14.109039 0 25.663856 11.433187 25.663855 25.663855 0 14.109039-11.433187 25.663856-25.663855 25.663856H165.41632c-21.650077 0-39.286376 17.636299-39.286376 39.286376v693.04573c0 21.650077 17.636299 39.286376 39.286376 39.286376h693.04573c21.650077 0 39.286376-17.636299 39.286376-39.286376V372.065091c0-14.109039 11.433187-25.663856 25.663856-25.663856 14.109039 0 25.663856 11.433187 25.663855 25.663856v486.761848c-0.12163 49.868155-40.745932 90.492458-90.614087 90.492458z" fill="#ffffff" p-id="18403"></path><path d="M760.793443 535.292077H259.071149c-14.109039 0-25.663856-11.433187-25.663856-25.663855 0-14.109039 11.433187-25.663856 25.663856-25.663856h501.722294c14.109039 0 25.663856 11.433187 25.663856 25.663856s-11.554816 25.663856-25.663856 25.663855z" fill="#ffffff" p-id="18404"></path><path d="M760.793443 535.292077H259.071149c-14.109039 0-25.663856-11.433187-25.663856-25.663855 0-14.109039 11.433187-25.663856 25.663856-25.663856h501.722294c14.109039 0 25.663856 11.433187 25.663856 25.663856s-11.554816 25.663856-25.663856 25.663855z" fill="#ffffff" p-id="18405"></path><path d="M509.871481 786.21404c-14.109039 0-25.663856-11.433187-25.663855-25.663856V258.949519c0-14.109039 11.433187-25.663856 25.663855-25.663856 14.109039 0 25.663856 11.433187 25.663856 25.663856v501.722295c0 13.987409-11.433187 25.542226-25.663856 25.542226zM921.587837 241.921368c15.203706 0 27.366671-12.284594 27.366671-27.36667 0-15.203706-12.284594-27.366671-27.366671-27.366671-15.203706 0-27.366671 12.284594-27.366671 27.366671-0.12163 15.082076 12.162965 27.366671 27.366671 27.36667M920.858059 133.670982c15.203706 0 27.366671-12.284594 27.366671-27.36667 0-15.203706-12.284594-27.366671-27.366671-27.366671C905.654353 78.937641 893.491389 91.222235 893.491389 106.304312c-0.12163 15.082076 12.162965 27.366671 27.36667 27.36667M811.148117 130.143723c15.203706 0 27.366671-12.284594 27.366671-27.366671 0-15.203706-12.284594-27.366671-27.366671-27.366671-15.203706 0-27.366671 12.284594-27.36667 27.366671-0.12163 15.082076 12.162965 27.366671 27.36667 27.366671" fill="#ffffff" p-id="18406"></path></svg>