<?xml version="1.0" standalone="no"?><!DOCTYPE svg PUBLIC "-//W3C//DTD SVG 1.1//EN" "http://www.w3.org/Graphics/SVG/1.1/DTD/svg11.dtd"><svg t="1505969093046" class="icon" style="" viewBox="0 0 1024 1024" version="1.1" xmlns="http://www.w3.org/2000/svg" p-id="18898" xmlns:xlink="http://www.w3.org/1999/xlink" width="40" height="40"><defs><style type="text/css"></style></defs><path d="M374.972649 64.303538l0 0.558725L187.522396 251.91138l0 707.785082 648.954185 0 0-895.392924L374.972649 64.303538zM761.879606 885.10051 262.118348 885.10051l0-558.592155 187.450253 0L449.5686 138.900513l312.311005 0L761.879606 885.10051z" p-id="18899" fill="#ffffff"></path><path d="M328.434729 404.940682l300.255435 0 0 59.565631-300.255435 0 0-59.565631Z" p-id="18900" fill="#ffffff"></path><path d="M328.434729 539.151383l212.473159 0 0 59.564607-212.473159 0 0-59.564607Z" p-id="18901" fill="#ffffff"></path><path d="M328.434729 672.487158l364.835266 0 0 59.565631-364.835266 0 0-59.565631Z" p-id="18902" fill="#ffffff"></path></svg>