<?xml version="1.0" standalone="no"?><!DOCTYPE svg PUBLIC "-//W3C//DTD SVG 1.1//EN" "http://www.w3.org/Graphics/SVG/1.1/DTD/svg11.dtd"><svg t="1499245843727" class="icon" style="" viewBox="0 0 1024 1024" version="1.1" xmlns="http://www.w3.org/2000/svg" p-id="6476" xmlns:xlink="http://www.w3.org/1999/xlink" width="40" height="40"><defs><style type="text/css"></style></defs><path d="M754.808471 963.764706l-542.117647 0c-83.004235 0-150.588235-71.981176-150.588235-160.587294L62.102588 281.057882C62.102588 192.512 129.686588 120.470588 212.690824 120.470588l542.117647 0c83.064471 0 150.588235 72.041412 150.588235 160.587294l0 522.119529C905.396706 891.783529 837.872941 963.764706 754.808471 963.764706zM212.690824 180.705882c-49.814588 0-90.352941 45.056-90.352941 100.352l0 522.119529c0 55.296 40.538353 100.352 90.352941 100.352l542.117647 0c49.814588 0 90.352941-45.056 90.352941-100.352L845.161412 281.057882c0-55.296-40.538353-100.352-90.352941-100.352L212.690824 180.705882z" p-id="6477" fill="#ffffff"></path><path d="M664.395294 813.176471c-16.624941 0-30.117647-13.492706-30.117647-30.117647L634.277647 481.882353c0-16.624941 13.492706-30.117647 30.117647-30.117647s30.117647 13.492706 30.117647 30.117647l0 301.176471C694.512941 799.683765 681.080471 813.176471 664.395294 813.176471z" p-id="6478" fill="#ffffff"></path><path d="M483.689412 813.176471c-16.624941 0-30.117647-13.492706-30.117647-30.117647L453.571765 361.411765c0-16.624941 13.492706-30.117647 30.117647-30.117647s30.117647 13.492706 30.117647 30.117647l0 421.647059C513.807059 799.683765 500.374588 813.176471 483.689412 813.176471z" p-id="6479" fill="#ffffff"></path><path d="M302.983529 813.176471c-16.624941 0-30.117647-13.492706-30.117647-30.117647L272.865882 542.117647c0-16.624941 13.492706-30.117647 30.117647-30.117647s30.117647 13.492706 30.117647 30.117647l0 240.941176C333.101176 799.683765 319.668706 813.176471 302.983529 813.176471z" p-id="6480" fill="#ffffff"></path></svg>