<?xml version="1.0" standalone="no"?><!DOCTYPE svg PUBLIC "-//W3C//DTD SVG 1.1//EN" "http://www.w3.org/Graphics/SVG/1.1/DTD/svg11.dtd"><svg t="1505969130104" class="icon" style="" viewBox="0 0 1024 1024" version="1.1" xmlns="http://www.w3.org/2000/svg" p-id="19618" xmlns:xlink="http://www.w3.org/1999/xlink" width="40" height="40"><defs><style type="text/css"></style></defs><path d="M768 992H256c-89.6 0-160-70.4-160-160V192C96 102.4 166.4 32 256 32h512c89.6 0 160 70.4 160 160v640c0 89.6-70.4 160-160 160z m-512-896c-51.2 0-96 44.8-96 96v640c0 51.2 44.8 96 96 96h512c51.2 0 96-44.8 96-96V192c0-51.2-44.8-96-96-96H256z" fill="#ffffff" p-id="19619"></path><path d="M736 352h-320c-19.2 0-32-12.8-32-32s12.8-32 32-32h320c19.2 0 32 12.8 32 32s-12.8 32-32 32zM736 544h-320c-19.2 0-32-12.8-32-32s12.8-32 32-32h320c19.2 0 32 12.8 32 32s-12.8 32-32 32zM736 736h-320c-19.2 0-32-12.8-32-32s12.8-32 32-32h320c19.2 0 32 12.8 32 32s-12.8 32-32 32z" fill="#ffffff" p-id="19620"></path><path d="M288 320m-32 0a32 32 0 1 0 64 0 32 32 0 1 0-64 0Z" fill="#ffffff" p-id="19621"></path><path d="M288 512m-32 0a32 32 0 1 0 64 0 32 32 0 1 0-64 0Z" fill="#ffffff" p-id="19622"></path><path d="M288 704m-32 0a32 32 0 1 0 64 0 32 32 0 1 0-64 0Z" fill="#ffffff" p-id="19623"></path></svg>