<?xml version="1.0" standalone="no"?><!DOCTYPE svg PUBLIC "-//W3C//DTD SVG 1.1//EN" "http://www.w3.org/Graphics/SVG/1.1/DTD/svg11.dtd"><svg t="1505969151959" class="icon" style="" viewBox="0 0 1024 1024" version="1.1" xmlns="http://www.w3.org/2000/svg" p-id="19794" xmlns:xlink="http://www.w3.org/1999/xlink" width="40" height="40"><defs><style type="text/css"></style></defs><path d="M916.8 145.6H768.8v-32c0-11.2-8.8-20-20-20h-54.4V32c0-11.2-8.8-20-20-20h-328c-11.2 0-20 8.8-20 20v62.4H272c-11.2 0-20 8.8-20 20v32H102.4c-11.2 0-20 8.8-20 20v819.2c0 11.2 8.8 20 20 20h814.4c11.2 0 20-8.8 20-20V165.6c0-10.4-8.8-20-20-20z m-625.6-11.2h54.4c11.2 0 20-8.8 20-20V52h288v62.4c0 11.2 8.8 20 20 20H728v124.8H291.2V134.4z m605.6 830.4H122.4V185.6h128.8v92.8c0 11.2 8.8 20 20 20h477.6c11.2 0 20-8.8 20-20V185.6h128.8v779.2z" p-id="19795" fill="#ffffff"></path><path d="M748.8 435.2H271.2c-11.2 0-20 8.8-20 20s8.8 20 20 20h477.6c11.2 0 20-8.8 20-20s-9.6-20-20-20zM748.8 587.2H271.2c-11.2 0-20 8.8-20 20s8.8 20 20 20h477.6c11.2 0 20-8.8 20-20s-9.6-20-20-20zM748.8 739.2H271.2c-11.2 0-20 8.8-20 20s8.8 20 20 20h477.6c11.2 0 20-8.8 20-20s-9.6-20-20-20z" p-id="19796" fill="#ffffff"></path></svg>