<?xml version="1.0" standalone="no"?><!DOCTYPE svg PUBLIC "-//W3C//DTD SVG 1.1//EN" "http://www.w3.org/Graphics/SVG/1.1/DTD/svg11.dtd"><svg t="1505969190236" class="icon" style="" viewBox="0 0 1024 1024" version="1.1" xmlns="http://www.w3.org/2000/svg" p-id="20761" xmlns:xlink="http://www.w3.org/1999/xlink" width="40" height="40"><defs><style type="text/css"></style></defs><path d="M550.912 772.096h-71.68m-378.88 0V110.592H75.776C57.344 110.592 40.96 94.208 40.96 73.728s16.384-34.816 34.816-34.816h872.448c20.48 0 34.816 16.384 34.816 34.816s-16.384 34.816-34.816 34.816h-22.528V737.28c-2.048 22.528-6.144 30.72-24.576 32.768M167.936 675.84v24.576h688.128c2.048-2.048 2.048-6.144 0-10.24v-16.384V104.448H167.936V675.84z m108.544-53.248c-20.48 0-32.768-16.384-32.768-34.816s16.384-34.816 32.768-34.816h262.144c20.48 0 32.768 16.384 32.768 34.816s-16.384 34.816-32.768 34.816H276.48z m0-182.272c-20.48 0-32.768-16.384-32.768-34.816s16.384-34.816 32.768-34.816h350.208c20.48 0 32.768 16.384 32.768 34.816s-16.384 34.816-32.768 34.816H276.48z m0-182.272c-20.48 0-32.768-16.384-32.768-34.816s16.384-34.816 32.768-34.816h350.208c20.48 0 32.768 16.384 32.768 34.816s-16.384 34.816-32.768 34.816H276.48z" p-id="20762" fill="#ffffff"></path><path d="M473.088 759.808h81.92v225.28h-81.92v-225.28z" p-id="20763" fill="#ffffff"></path></svg>