<?xml version="1.0" standalone="no"?><!DOCTYPE svg PUBLIC "-//W3C//DTD SVG 1.1//EN" "http://www.w3.org/Graphics/SVG/1.1/DTD/svg11.dtd"><svg t="1505969068665" class="icon" style="" viewBox="0 0 1047 1024" version="1.1" xmlns="http://www.w3.org/2000/svg" p-id="18724" xmlns:xlink="http://www.w3.org/1999/xlink" width="40.8984375" height="40"><defs><style type="text/css"></style></defs><path d="M168.015229 607.126886h176.870822v70.912864H168.015229zM168.015229 217.15591h442.187534v70.891905H168.015229zM168.015229 398.847528h353.762603v70.912865H168.015229z" p-id="18725" fill="#ffffff"></path><path d="M787.073585 70.891905H75.157261v864.195844h309.526558c13.26767 17.721666 26.530099 53.164998 44.230806 75.324942H35.364732c-17.684986 0-35.364732-17.726906-35.364732-35.448573V35.448572C0 17.721666 17.679746 0 35.364732 0h791.501382c17.705946 0 35.385692 17.721666 35.385692 35.448572V323.517347c-17.679746 0-57.477515-4.438277-75.178221-4.438276V70.891905z" p-id="18726" fill="#ffffff"></path><path d="M447.48517 671.390195l435.7371-253.615801c43.869246-25.50306 100.104882-10.642432 125.639382 33.200614l23.092662 39.666769c25.47686 43.827326 10.610992 100.089162-33.190134 125.576502l-435.79474 253.636761-275.597585 24.098742m95.546086-53.054959l165.96639-16.338307 10.700072-6.225115-69.309426-119.094627-10.836312 6.277515-96.520724 135.380534z m147.039525-164.740231l69.304186 119.078907 296.851008-172.773145-69.309426-119.063187-296.845768 172.757425z m462.649719-162.963873l-23.087422-39.703449c-12.76463-21.871743-40.919128-29.343977-62.817071-16.595067l-40.232689 23.412302 69.325146 119.036987 40.216968-23.359902c21.897943-12.74891 29.338737-40.924368 16.595068-62.790871z" p-id="18727" fill="#ffffff"></path></svg>