<?xml version="1.0" standalone="no"?><!DOCTYPE svg PUBLIC "-//W3C//DTD SVG 1.1//EN" "http://www.w3.org/Graphics/SVG/1.1/DTD/svg11.dtd"><svg t="1505969263017" class="icon" style="" viewBox="0 0 1024 1024" version="1.1" xmlns="http://www.w3.org/2000/svg" p-id="21116" xmlns:xlink="http://www.w3.org/1999/xlink" width="40" height="40"><defs><style type="text/css"></style></defs><path d="M755.591221 728.171384l-0.003197-0.006394-0.003197-0.006394-290.20846-469.692185a23.382149 23.382149 0 0 0-1.547301-2.177091c-0.143861-0.179027-0.297312-0.348462-0.44437-0.521095a21.847635 21.847635 0 0 0-1.895763-1.985277 21.786894 21.786894 0 0 0-1.93093-1.598452l-0.124679-0.099104a21.777303 21.777303 0 0 0-2.327345-1.457787c-0.057544-0.031969-0.105498-0.073529-0.163042-0.102301L366.81265 202.009104l-30.565589-49.468877a22.378321 22.378321 0 1 0-38.075115 23.522812l30.56559 49.468877 2.909181 97.403241a22.279217 22.279217 0 0 0 2.835653 16.403309L448.752471 524.292092H261.250913a22.378321 22.378321 0 1 0 0 44.756642h215.157966l109.61541 177.408935-3.564547 2.202666-60.098579-97.26897a22.378321 22.378321 0 0 0-38.075115 23.522812l98.765121 159.851544a22.35914 22.35914 0 0 0 30.802161 7.276151 22.378321 22.378321 0 0 0 7.272954-30.798964l-15.140533-24.504261 3.564547-2.202666 15.114958 24.465898 0.022378 0.038363 0.019181 0.028772 32.397415 52.435603c14.533121 23.519615 39.766276 36.476663 65.574875 36.476664 13.788243 0 27.745921-3.702014 40.312946-11.464095 36.086641-22.301595 47.307771-69.80118 25.009373-105.887821l-32.410203-52.457981zM384.318891 334.853211l54.746964-33.826431 266.682451 431.623465-54.746964 33.823234-266.682451-431.620268z m17.282458-63.292286l-22.816297 14.098343-3.417489 2.109956-0.920708-30.821342 27.154494 14.613043z m352.269938 556.9037a31.96903 31.96903 0 0 1-14.405245 19.977447c-15.092579 9.325366-34.958134 4.635509-44.286697-10.460267l-20.65519-33.426818 54.746964-33.823233 20.651993 33.426817a31.943455 31.943455 0 0 1 3.948175 24.306054z" fill="#ffffff" p-id="21117"></path><path d="M891.021623 250.506122a20.421816 20.421816 0 0 0-0.063938-1.253186c-0.022378-0.332478-0.04156-0.661759-0.079923-0.99104-0.044757-0.377235-0.108695-0.748075-0.172633-1.122113-0.060741-0.358053-0.111892-0.712909-0.188617-1.064568-0.073529-0.345266-0.172633-0.684137-0.262146-1.023009-0.095907-0.36125-0.188617-0.725697-0.300509-1.080554-0.108695-0.342069-0.242965-0.674547-0.367644-1.010221-0.127876-0.338872-0.249358-0.68094-0.390022-1.010221-0.150254-0.351659-0.329281-0.690531-0.498717-1.035797-0.150254-0.300509-0.290918-0.607412-0.45396-0.901526-0.188617-0.342069-0.40281-0.674547-0.613805-1.010222-0.17583-0.281327-0.348462-0.569049-0.53708-0.843982-0.214193-0.3101-0.447566-0.607412-0.677743-0.907921-0.220586-0.287721-0.434779-0.575443-0.668153-0.850376-0.223783-0.265343-0.463551-0.517898-0.703319-0.77365a21.259405 21.259405 0 0 0-0.834391-0.863164c-0.086316-0.083119-0.156648-0.172633-0.246162-0.255752l-196.072455-183.706834c-0.159845-0.150254-0.335675-0.278131-0.498717-0.421992a19.763254 19.763254 0 0 0-1.76469-1.409834 22.937779 22.937779 0 0 0-1.870188-1.208429 20.994062 20.994062 0 0 0-2.941151-1.425819 20.69675 20.69675 0 0 0-2.071593-0.703319 23.17435 23.17435 0 0 0-4.277457-0.783241 19.699316 19.699316 0 0 0-1.230807-0.060741c-0.214193-0.006394-0.425188-0.031969-0.642578-0.031969H154.640592a22.378321 22.378321 0 0 0-22.378321 22.378321v891.38607a22.378321 22.378321 0 0 0 22.378321 22.378321H868.662483a22.378321 22.378321 0 0 0 22.378321-22.378321V250.841797c0-0.111892-0.015985-0.223783-0.019181-0.335675z m-196.053274-131.737979l117.076982 109.695333h-117.076982V118.768143z m151.315813 817.374569H177.018913V89.513284h473.192794v161.328513a22.378321 22.378321 0 0 0 22.378321 22.378321h173.694134v662.922594z" fill="#ffffff" p-id="21118"></path><path d="M261.250913 680.940339h164.205726a22.378321 22.378321 0 1 0 0-44.756642H261.250913a22.378321 22.378321 0 1 0 0 44.756642zM489.394699 748.075302H261.250913a22.378321 22.378321 0 1 0 0 44.756642h228.143786a22.378321 22.378321 0 1 0 0-44.756642zM786.706678 636.183697h-4.360576a22.378321 22.378321 0 1 0 0 44.756642h4.360576a22.378321 22.378321 0 1 0 0-44.756642zM705.62043 569.048734h81.086248a22.378321 22.378321 0 1 0 0-44.756642H705.62043a22.378321 22.378321 0 1 0 0 44.756642z" fill="#ffffff" p-id="21119"></path></svg>