<?xml version="1.0" standalone="no"?><!DOCTYPE svg PUBLIC "-//W3C//DTD SVG 1.1//EN" "http://www.w3.org/Graphics/SVG/1.1/DTD/svg11.dtd"><svg t="1499324133331" class="icon" style="" viewBox="0 0 1024 1024" version="1.1" xmlns="http://www.w3.org/2000/svg" p-id="18714" xmlns:xlink="http://www.w3.org/1999/xlink" width="70" height="70"><defs><style type="text/css"></style></defs><path d="M386.504286 671.299099c24.858154-10.381441 77.088726-28.758997 120.658034-42.775222 5.485945-1.721201 10.841929-3.439332 16.000416-5.02648 0.726547-0.261966 1.388627-0.461511 2.047636-0.661056 5.025457-1.520633 9.91686-3.040243 14.413268-4.363378 3.967358-1.255597 4.628414-1.455141 4.628414-17.84953 0-3.371794-0.398066-6.809079-0.992607-10.18292-0.397043-2.114151-1.057075-4.231371-1.585101-6.412037-0.329505-1.125637-0.530073-2.38021-0.925069-3.571339-0.531096-1.717108-1.257643-3.435239-1.851161-5.15644-1.785669-4.694929-3.702322-9.255805-5.686513-13.485129-1.454118-3.107781-3.042289-6.809079-4.561899-10.842952-0.463558-1.255597-0.924045-2.77623-1.387603-4.100388-1.059122-2.910283-2.049682-5.817496-3.041266-8.924253-0.463558-1.587148-0.860601-3.306302-1.257643-4.894474-0.857531-3.106758-1.783623-6.215562-2.511193-9.386788-0.726547-3.174296-1.189082-6.279007-1.717108-9.453303-0.267083-1.653663-0.730641-3.371794-0.927115-5.025457l0 0 0 0c-2.644223-3.039219-5.621021-7.206122-8.661264-12.82612-0.397043-0.728594-0.727571-1.587148-1.124614-2.313695-0.662079-1.255597-1.255597-2.445702-1.917676-3.835352-0.926092-2.047636-1.851161-4.230348-2.709715-6.609535-0.13303-0.199545-0.199545-0.330528-0.265036-0.530073-0.925069-2.379187-1.785669-4.957919-2.644223-7.734148-0.068562-0.198521-0.198521-0.396019-0.265036-0.594541-0.859577-2.77623-1.654686-5.752004-2.512217-8.858762-0.066515-0.264013-0.13303-0.463558-0.199545-0.727571-0.858554-3.371794-1.65264-7.006578-2.444679-10.843976-0.661056-3.238764-1.191128-6.214539-1.587148-8.989745-0.065492-0.595564-0.132006-1.12359-0.26299-1.719154-0.265036-2.116197-0.594541-4.16588-0.727571-6.082532-0.067538-0.594541-0.13303-1.190105-0.13303-1.785669-0.13303-1.653663-0.265036-3.174296-0.330528-4.629437l0-2.312672c0-1.058099 0-2.049682 0.065492-3.041266 0-1.057075 0.066515-2.116197 0.198521-3.107781 0-0.463558 0.067538-0.926092 0.13303-1.388627 0.13303-1.255597 0.329505-2.512217 0.594541-3.702322 0-0.13303 0.066515-0.330528 0.13303-0.529049 0.264013-1.254573 0.529049-2.445702 0.858554-3.635807 0.065492-0.198521 0.13303-0.396019 0.199545-0.594541 0.330528-0.99056 0.661056-1.984191 0.992607-2.974751 0.198521-0.462534 0.396019-0.99056 0.594541-1.520633 0-0.066515 0-0.132006 0.064468-0.198521l0.199545-0.529049c0.264013-0.726547 0.528026-1.454118 0.793062-2.116197l0-0.13303c0.065492-0.462534 0.132006-1.255597 0.198521-1.916653 0-0.529049 0.130983-0.926092 0.130983-1.653663 0.397043-7.999185-0.528026-24.26259-2.511193-40.724517 0-0.13303 0-0.264013-0.065492-0.397043-0.264013-2.577708-0.596588-5.089925-0.991584-7.603165-0.13303-0.926092-0.198521-1.785669-0.329505-2.710738-0.463558-2.841721-0.859577-5.552459-1.388627-8.263198-0.067538-0.462534-0.13303-0.926092-0.200568-1.388627-0.396019-2.182712-0.661056-4.693906-0.857531-7.471159-0.594541-11.766998 1.453095-28.229948 7.733125-45.353954 4.101411-10.974959 9.852392-22.213931 18.050098-32.726356 0.065492-0.064468 0.198521-0.197498 0.264013-0.264013 2.24718-2.90926 4.694929-5.621021 7.206122-8.197706 1.38965-1.454118 2.908236-2.90926 4.495384-4.363378 1.124614-1.12359 2.314719-2.248204 3.571339-3.305279 2.180666-1.850138 4.493338-3.702322 7.007601-5.487991 0.660032-0.527003 1.320065-0.99056 1.983167-1.453095 2.90926-2.049682 6.082532-4.033873 9.388834-5.951549 0.462534-0.199545 0.859577-0.463558 1.323135-0.726547 3.501754-1.917676 7.271614-3.703345 11.237949-5.421476 0.530073-0.264013 1.12359-0.463558 1.65264-0.727571 3.835352-1.51961 7.933693-2.975774 12.231579-4.230348 0.926092-0.264013 1.783623-0.594541 2.775206-0.858554 4.101411-1.12359 8.528234-2.117221 13.091156-2.974751 1.124614-0.200568 2.181689-0.464581 3.305279-0.662079 5.685489-0.926092 11.637038-1.65264 18.048051-2.048659l29.157064 0c3.504824 0.264013 6.545066 0.793062 9.850345 1.190105 3.042289 0.330528 6.28003 0.595564 9.124821 1.058099 2.975774 0.528026 5.621021 1.321088 8.396227 1.983167 2.645247 0.594541 5.487991 1.12359 7.998161 1.850138 2.711761 0.793062 5.092995 1.785669 7.66968 2.711761 2.25025 0.793062 4.628414 1.520633 6.742565 2.446725 2.514263 1.057075 4.761444 2.24718 7.077186 3.370771 1.848091 0.991584 3.831258 1.785669 5.552459 2.777253 2.313695 1.321088 4.364401 2.708692 6.41306 4.098341 1.454118 0.926092 3.107781 1.850138 4.495384 2.841721 2.248204 1.586125 4.232394 3.305279 6.214539 4.957919 0.991584 0.793062 2.117221 1.587148 3.040243 2.381234 2.313695 2.047636 4.296863 4.164856 6.348592 6.148024 0.397043 0.529049 0.99056 0.992607 1.388627 1.455141 2.381234 2.512217 4.496407 4.957919 6.346545 7.404644 24.130583 30.807656 28.166503 68.030419 24.925692 85.551468-0.066515 0.726547-0.199545 1.454118-0.330528 2.115174-0.397043 2.381234-0.793062 4.693906-1.190105 7.207146-1.323135 9.254781-2.381234 18.842137-3.042289 27.503401-0.065492 0.528026-0.065492 0.99056-0.13303 1.520633-0.13303 2.181689-0.264013 4.164856-0.397043 6.148024-0.065492 0.926092-0.130983 1.918699-0.130983 2.777253-0.132006 1.850138-0.132006 3.437286-0.198521 5.024433-0.066515 0.793062-0.066515 1.653663-0.066515 2.38021-0.065492 2.248204-0.065492 4.099365 0 5.686513l0 0.132006c0.066515 1.653663 0.134053 3.040243 0.330528 3.900843l0 0.199545c0.329505 1.058099 0.662079 1.984191 1.057075 2.974751 2.117221 5.421476 3.504824 10.842952 3.768837 17.917068l0 0.528026c0.066515 1.521656 0.066515 3.108804 0 4.761444-0.065492 0.857531-0.13303 1.783623-0.199545 2.775206-0.065492 1.12359-0.13303 2.312672-0.26299 3.570315-0.13303 1.520633-0.397043 3.239787-0.662079 4.892427-0.064468 0.926092-0.197498 1.719154-0.330528 2.711761-0.397043 2.775206-0.924045 5.684466-1.586125 8.924253-5.355985 26.907836-13.420661 42.576701-20.033265 51.436486-0.926092 1.322112-1.849114 2.446725-2.709715 3.439332-1.057075 8.131191-3.042289 16.59291-5.287423 24.660656-0.399089 1.388627-0.726547 2.775206-1.125637 4.098341-0.793062 2.577708-1.654686 4.825912-2.446725 7.206122-0.662079 1.983167-1.323135 4.099365-1.983167 5.886057-1.51961 4.030803-3.106758 7.668657-4.561899 10.774391-1.057075 2.314719-1.983167 4.824889-2.777253 7.53665-0.196475 0.530073-0.26299 1.12359-0.393973 1.587148-0.596588 2.38021-1.190105 4.76042-1.587148 7.404644-0.199545 1.255597-0.330528 2.709715-0.463558 3.965312-0.265036 2.184759-0.594541 4.233418-0.727571 6.611581-0.264013 3.76986-0.397043 7.870248-0.397043 12.300141 0 10.906397 0.329505 14.611789 1.586125 16.196891 0.067538 0.132006 0.067538 0.329505 0.13303 0.396019 0.065492 0.065492 0.399089 0.26606 0.926092 0.528026 0.462534 0.26606 1.057075 0.463558 1.717108 0.663102 2.977821 0.859577 6.016017 1.782599 9.257851 2.778276 18.377556 5.684466 39.998993 12.891611 61.087287 20.230764 0.663102 0.264013 1.454118 0.528026 2.117221 0.793062 2.379187 0.793062 4.694929 1.65264 7.006578 2.444679 1.25662 0.463558 2.577708 0.927115 3.834328 1.390673 1.520633 0.528026 2.974751 1.057075 4.495384 1.585101 2.114151 0.727571 4.16588 1.518586 6.213515 2.248204 0.595564 0.197498 1.190105 0.398066 1.785669 0.661056 2.842745 0.99363 5.686513 2.050706 8.463766 3.109828l1.190105 0.393973c12.891611 4.762467 24.660656 9.255805 34.17945 13.091156 4.892427 1.984191 9.190313 3.76986 12.759605 5.355985 2.578732 1.12359 4.891404 2.314719 7.073092 3.637854 0.860601 0.528026 1.587148 1.12359 2.382257 1.65264 1.255597 0.857531 2.381234 1.65264 3.438309 2.576685 0.926092 0.729617 1.718131 1.52268 2.577708 2.314719 0.727571 0.793062 1.520633 1.520633 2.181689 2.314719 0.858554 0.989537 1.586125 1.916653 2.314719 2.973728 0.528026 0.727571 1.057075 1.455141 1.520633 2.180666 0.660032 1.125637 1.320065 2.314719 1.848091 3.505847 0.399089 0.660032 0.729617 1.388627 0.99363 2.116197 0.528026 1.255597 0.991584 2.578732 1.387603 3.965312 0.264013 0.727571 0.463558 1.390673 0.662079 2.116197 0.330528 1.455141 0.661056 2.975774 0.860601 4.495384 0.130983 0.663102 0.260943 1.323135 0.329505 2.048659 0.264013 2.184759 0.394996 4.365424 0.394996 6.67912l0 72.195276c0 10.247388-6.082532 27.702945-27.964912 27.702945L381.214816 815.567877c-20.428262 0-27.040866-15.137769-27.832905-25.452695l0-3.373841-0.134053-71.006194c0-15.009855 10.247388-34.576493 33.255405-44.427862L386.504286 671.299099 386.504286 671.299099z" p-id="18715" fill="#ff9800"></path><path d="M149.116691 641.171941c25.585725-10.708899 85.948511-31.670304 123.367749-42.708707 3.173273-0.99363 3.703345-1.189082 3.703345-14.414291 0-10.972912-4.561899-22.01541-8.925277-31.403221-4.76042-10.116405-10.444886-27.173896-12.429077-42.510186-5.686513-6.612605-13.421684-19.570731-18.380626-44.36237-4.363378-21.817911-2.312672-29.751604 0.595564-37.22174 0.265036-0.794086 0.595564-1.587148 0.793062-2.314719 1.124614-5.157463-0.396019-31.733749-4.099365-52.360532-2.577708-14.148231 0.663102-44.230364 20.09978-69.155033 12.363585-15.734356 35.833113-35.106566 78.873372-37.750789l23.536043 0c42.246173 2.644223 65.849754 22.016433 78.08031 37.750789 19.504216 24.924669 22.744004 55.007825 20.164249 69.155033-3.767813 20.627806-5.222955 47.203068-4.16588 52.228525 0.264013 0.858554 0.529049 1.653663 0.858554 2.447748 2.908236 7.470135 4.958942 15.402805 0.594541 37.220716-4.957919 24.793686-12.694113 37.751812-18.378579 44.36237-2.049682 15.33936-7.66968 32.395828-12.429077 42.510186-3.5038 7.470135-5.157463 17.587564-5.157463 31.869848 0 13.288654 0.528026 13.420661 3.502777 14.346753 12.694113 3.767813 27.900443 8.725732 43.305295 13.948687-34.44551 11.704576-68.625984 24.066115-87.534636 31.934317-35.039028 15.0733-50.77543 46.476521-50.77543 71.071685l0.13303 41.981137-179.63117 0c-17.652032 0-22.610974-14.148231-22.610974-22.346961l0-58.378595c0-12.627598 8.727779-28.096918 26.907836-35.897581L149.116691 641.171941 149.116691 641.171941z" p-id="18716" fill="#ff9800"></path></svg>