<?xml version="1.0" standalone="no"?><!DOCTYPE svg PUBLIC "-//W3C//DTD SVG 1.1//EN" "http://www.w3.org/Graphics/SVG/1.1/DTD/svg11.dtd"><svg t="1499323359334" class="icon" style="" viewBox="0 0 1120 1024" version="1.1" xmlns="http://www.w3.org/2000/svg" p-id="7898" xmlns:xlink="http://www.w3.org/1999/xlink" width="76.5625" height="70"><defs><style type="text/css"></style></defs><path d="M998.4 652.8c0-12.8-12.8-25.6-25.6-25.6-25.6 0-44.8-19.2-44.8-44.8 0-6.4 0-12.8 6.4-19.2 6.4-12.8 0-32-12.8-38.4l-51.2-25.6c-12.8-6.4-25.6 0-38.4 6.4-6.4 6.4-25.6 19.2-38.4 19.2-12.8 0-32-12.8-38.4-19.2-12.8-6.4-25.6-12.8-38.4-6.4l-51.2 25.6c-12.8 6.4-19.2 25.6-12.8 38.4 0 6.4 6.4 12.8 6.4 19.2 0 25.6-19.2 44.8-44.8 44.8-12.8 0-25.6 12.8-25.6 25.6 0 0-6.4 25.6-6.4 38.4 0 19.2 6.4 38.4 6.4 38.4 0 12.8 12.8 25.6 25.6 25.6 25.6 0 44.8 19.2 44.8 44.8 0 6.4 0 12.8-6.4 19.2-6.4 12.8 0 32 12.8 38.4l51.2 25.6c12.8 6.4 25.6 0 38.4-6.4 6.4-6.4 25.6-19.2 38.4-19.2 12.8 0 32 12.8 38.4 19.2 12.8 12.8 25.6 12.8 38.4 6.4l51.2-25.6c12.8-6.4 19.2-25.6 12.8-38.4 0-6.4-6.4-12.8-6.4-19.2 0-25.6 19.2-44.8 44.8-44.8 12.8 0 25.6-12.8 25.6-25.6 0 0 6.4-19.2 6.4-38.4-6.4-19.2-6.4-38.4-6.4-38.4z m-211.2 115.2c-44.8 0-76.8-38.4-76.8-76.8s32-70.4 76.8-70.4 76.8 38.4 76.8 76.8-38.4 70.4-76.8 70.4z m-128-294.4c-128 70.4-179.2 224-108.8 352 6.4 12.8 19.2 25.6 25.6 38.4h-390.4c-44.8 0-76.8-25.6-76.8-64v-19.2c0-38.4 25.6-70.4 64-83.2l153.6-64s44.8-12.8 51.2-25.6c6.4-6.4 12.8-38.4 0-51.2-12.8-19.2-89.6-115.2-89.6-198.4 0-134.4 89.6-236.8 204.8-236.8 115.2 0 204.8 108.8 204.8 236.8-6.4 44.8-19.2 83.2-38.4 115.2z" fill="#03a9f4" p-id="7899"></path></svg>