<?xml version="1.0" encoding="utf-8"?>
<!-- Generator: Adobe Illustrator 15.0.0, SVG Export Plug-In . SVG Version: 6.00 Build 0)  -->
<!DOCTYPE svg PUBLIC "-//W3C//DTD SVG 1.1//EN" "http://www.w3.org/Graphics/SVG/1.1/DTD/svg11.dtd">
<svg version="1.1" id="Layer_1" xmlns="http://www.w3.org/2000/svg" xmlns:xlink="http://www.w3.org/1999/xlink" x="0px" y="0px"
	 width="1440px" height="616px" viewBox="0 0 1440 616" enable-background="new 0 0 1440 616" xml:space="preserve">
<g>
	<g>
		
			<radialGradient id="SVGID_1_" cx="654.9072" cy="-129.6182" r="1010.5228" gradientTransform="matrix(1.8 0 0 0.77 -576.0001 70.8398)" gradientUnits="userSpaceOnUse">
			<stop  offset="0.1784" style="stop-color:#E2E7E5"/>
			<stop  offset="0.622" style="stop-color:#B1BEC0"/>
			<stop  offset="1" style="stop-color:#94A2A7"/>
		</radialGradient>
		<rect y="0.004" fill="url(#SVGID_1_)" width="1439.989" height="615.996"/>
		<rect y="0.004" fill="none" width="1439.989" height="615.996"/>
		
			<radialGradient id="SVGID_2_" cx="716.728" cy="318.167" r="910.8361" gradientTransform="matrix(0 -0.77 1.8 0 165.6026 862.1915)" gradientUnits="userSpaceOnUse">
			<stop  offset="0.3977" style="stop-color:#E2E7E5"/>
			<stop  offset="0.7802" style="stop-color:#B1BEC0"/>
			<stop  offset="1" style="stop-color:#94A2A7"/>
		</radialGradient>
		<path opacity="0.4" fill="url(#SVGID_2_)" d="M1439.989,0.004c0,0-176.755,476.909-979.395,615.991L1439.989,616V0.004z"/>
		
			<radialGradient id="SVGID_3_" cx="694.3364" cy="454.3301" r="910.8525" gradientTransform="matrix(1.8 0 0 0.573 -535.1984 132.3221)" gradientUnits="userSpaceOnUse">
			<stop  offset="0.3977" style="stop-color:#E2E7E5"/>
			<stop  offset="0.7802" style="stop-color:#B1BEC0"/>
			<stop  offset="1" style="stop-color:#94A2A7"/>
		</radialGradient>
		<path opacity="0.4" fill="url(#SVGID_3_)" d="M1440,615.995c0,0-1114.852-56.267-1439.98-311.762L0.011,615.995H1440z"/>
		
			<radialGradient id="SVGID_4_" cx="572.376" cy="340.5557" r="910.8286" gradientTransform="matrix(-1.1947 0 0 -0.77 1649.5159 562.4038)" gradientUnits="userSpaceOnUse">
			<stop  offset="0.3977" style="stop-color:#E2E7E5"/>
			<stop  offset="0.7802" style="stop-color:#B1BEC0"/>
			<stop  offset="1" style="stop-color:#94A2A7"/>
		</radialGradient>
		<path opacity="0.2" fill="url(#SVGID_4_)" d="M484.288,0.008c0,0,739.912,75.613,955.692,418.965l0.009-418.965H484.288z"/>
		
			<radialGradient id="SVGID_5_" cx="572.376" cy="340.5557" r="910.8286" gradientTransform="matrix(-1.1947 0 0 -0.77 1649.5159 562.4038)" gradientUnits="userSpaceOnUse">
			<stop  offset="0.3977" style="stop-color:#E2E7E5"/>
			<stop  offset="0.7802" style="stop-color:#B1BEC0"/>
			<stop  offset="1" style="stop-color:#94A2A7"/>
		</radialGradient>
		<path opacity="0.2" fill="url(#SVGID_5_)" d="M484.288,0.008c0,0,739.912,75.613,955.692,418.965l0.009-418.965H484.288z"/>
		
			<radialGradient id="SVGID_6_" cx="1027.1699" cy="892.0146" r="798.4614" gradientTransform="matrix(0 -0.77 1.8 0 165.6026 862.1915)" gradientUnits="userSpaceOnUse">
			<stop  offset="0.3977" style="stop-color:#E2E7E5"/>
			<stop  offset="0.7802" style="stop-color:#B1BEC0"/>
			<stop  offset="1" style="stop-color:#94A2A7"/>
		</radialGradient>
		<path opacity="0.6" fill="url(#SVGID_6_)" d="M717.981,0.008c0,0,626.531,88.655,626.531,615.987l95.478,0.005V0.004
			L717.981,0.008z"/>
		
			<radialGradient id="SVGID_7_" cx="379.9565" cy="55.2471" r="757.9058" gradientTransform="matrix(0 -0.4641 1.8 0 165.6026 663.6354)" gradientUnits="userSpaceOnUse">
			<stop  offset="0.3977" style="stop-color:#E2E7E5"/>
			<stop  offset="0.7802" style="stop-color:#B1BEC0"/>
			<stop  offset="1" style="stop-color:#94A2A7"/>
		</radialGradient>
		<path opacity="0.4" fill="url(#SVGID_7_)" d="M934.743,615.995c0,0-704.443-55.328-934.732-259.328L0,616L934.743,615.995z"/>
		
			<radialGradient id="SVGID_8_" cx="299.8325" cy="-131.4194" r="1045.3992" gradientTransform="matrix(0 0.77 -1.2512 0 1035.4122 -313.4376)" gradientUnits="userSpaceOnUse">
			<stop  offset="0.3977" style="stop-color:#E2E7E5"/>
			<stop  offset="0.7802" style="stop-color:#B1BEC0"/>
			<stop  offset="1" style="stop-color:#000000"/>
		</radialGradient>
		<path opacity="0.3" fill="url(#SVGID_8_)" d="M1053.874,0.004c0,0,353.126,272.91,207.167,615.988l178.939,0.003V0L1053.874,0.004
			z"/>
		
			<radialGradient id="SVGID_9_" cx="345.7568" cy="-73.9097" r="1045.4005" gradientTransform="matrix(-1.8 0 0 -0.6948 2255.374 431.2786)" gradientUnits="userSpaceOnUse">
			<stop  offset="0.3977" style="stop-color:#E2E7E5"/>
			<stop  offset="0.7802" style="stop-color:#B1BEC0"/>
			<stop  offset="1" style="stop-color:#000000"/>
		</radialGradient>
		<path opacity="0.3" fill="url(#SVGID_9_)" d="M1439.989,401.572c0,0-637.97,196.109-1439.969,115.051l-0.009,99.372H1440
			L1439.989,401.572z"/>
		
			<radialGradient id="SVGID_10_" cx="300.9282" cy="568.4043" r="847.1469" gradientTransform="matrix(0 -0.77 1.8 0 165.6026 862.1915)" gradientUnits="userSpaceOnUse">
			<stop  offset="0" style="stop-color:#E2E7E5"/>
			<stop  offset="0.6575" style="stop-color:#B1BEC0"/>
			<stop  offset="1" style="stop-color:#000000"/>
		</radialGradient>
		<path opacity="0.3" fill="url(#SVGID_10_)" d="M887.315,615.995c0,0,372.555-178.74,494.464-615.987L1439.98,0l0.02,615.995
			H887.315z"/>
		
			<radialGradient id="SVGID_11_" cx="1129.0479" cy="-164.73" r="486.8886" gradientTransform="matrix(0 0.77 -0.7396 0 967.4628 -246.4005)" gradientUnits="userSpaceOnUse">
			<stop  offset="0.3977" style="stop-color:#E2E7E5"/>
			<stop  offset="0.7802" style="stop-color:#B1BEC0"/>
			<stop  offset="1" style="stop-color:#94A2A7"/>
		</radialGradient>
		<path opacity="0.2" fill="url(#SVGID_11_)" d="M1158.877,615.995c0,0,165.595-291.474,121.065-615.987L1439.97,0v615.995H1158.877
			z"/>
		
			<radialGradient id="SVGID_12_" cx="1115.3076" cy="150.041" r="486.9111" gradientTransform="matrix(-1.8 0 0 -0.4841 1991.2648 459.0966)" gradientUnits="userSpaceOnUse">
			<stop  offset="0.3977" style="stop-color:#E2E7E5"/>
			<stop  offset="0.7802" style="stop-color:#B1BEC0"/>
			<stop  offset="1" style="stop-color:#94A2A7"/>
		</radialGradient>
		<path opacity="0.2" fill="url(#SVGID_12_)" d="M0.011,432.004c0,0,681.368,108.388,1439.97,79.241l0.02,104.75H0.011V432.004z"/>
		<rect y="0.004" fill="none" width="1439.989" height="615.996"/>
		
			<radialGradient id="SVGID_13_" cx="716.9985" cy="134.8442" r="1138.209" gradientTransform="matrix(1.8 0 0 0.77 -576.0001 70.8398)" gradientUnits="userSpaceOnUse">
			<stop  offset="0.3977" style="stop-color:#E2E7E5"/>
			<stop  offset="0.7802" style="stop-color:#B1BEC0"/>
			<stop  offset="1" style="stop-color:#94A2A7"/>
		</radialGradient>
		<path opacity="0.4" fill="url(#SVGID_13_)" d="M1270,0.008c0,0-60.959,396.951-1269.989,553.414L0,616h1439.989V0.004L1270,0.008z
			"/>
	</g>
</g>
</svg>
