<?xml version="1.0" standalone="no"?><!DOCTYPE svg PUBLIC "-//W3C//DTD SVG 1.1//EN" "http://www.w3.org/Graphics/SVG/1.1/DTD/svg11.dtd"><svg class="icon" style="" viewBox="0 0 1236 1024" version="1.1" xmlns="http://www.w3.org/2000/svg" p-id="3340" xmlns:xlink="http://www.w3.org/1999/xlink" width="57.9375" height="48"><defs><style type="text/css"><![CDATA[

]]></style></defs><path d="M980.841464 980.557576 760.526313 980.557576c-91.539394 0-164.460606-74.472727-164.460606-164.460606L596.065707 508.89697c0-12.412121 10.860606-23.272727 23.272727-23.272727s23.272727 10.860606 23.272727 23.272727l0 305.648485c0 65.163636 52.751515 117.915152 117.915152 117.915152l220.315152 0c110.157576 0 201.69697-82.230303 207.90303-187.733333 3.10303-55.854545-15.515152-110.157576-54.30303-150.49697-38.787879-40.339394-89.987879-63.612121-147.393939-63.612121l-4.654545 0c-7.757576 0-13.963636-3.10303-18.618182-7.757576-4.654545-6.206061-6.206061-12.412121-4.654545-20.169697 9.309091-44.993939 10.860606-91.539394 1.551515-136.533333-26.375758-150.49697-152.048485-265.309091-304.09697-282.375758C558.829343 72.921212 462.635404 103.951515 388.162676 170.666667c-72.921212 65.163636-116.363636 158.254545-116.363636 257.551515 0 10.860606-7.757576 21.721212-20.169697 23.272727C130.611161 468.557576 42.174798 575.612121 46.829343 699.733333c4.654545 127.224242 117.915152 232.727273 251.345455 232.727273l107.054545 0c12.412121 0 23.272727 10.860606 23.272727 23.272727S417.641464 977.454545 403.677828 977.454545l-107.054545 0C139.920252 977.454545 6.489949 853.333333 0.283888 701.284848c-6.206061-141.187879 89.987879-263.757576 224.969697-293.236364 6.206061-103.951515 52.751515-201.69697 131.878788-271.515152 83.781818-74.472727 192.387879-110.157576 305.648485-97.745455C834.99904 55.854545 977.738434 187.733333 1007.217222 358.4c7.757576 43.442424 9.309091 85.333333 3.10303 127.224242 60.509091 4.654545 117.915152 32.581818 158.254545 77.575758 48.09697 51.2 71.369697 116.363636 66.715152 186.181818C1227.532373 878.157576 1115.823282 980.557576 980.841464 980.557576z" p-id="3341"></path><path d="M802.417222 682.666667c-6.206061 0-12.412121-1.551515-17.066667-6.206061L617.786919 507.345455 450.223282 674.909091c-9.309091 9.309091-23.272727 9.309091-32.581818 0s-9.309091-23.272727 0-32.581818l184.630303-184.630303c9.309091-9.309091 24.824242-9.309091 32.581818 0l184.630303 184.630303c9.309091 9.309091 9.309091 23.272727 0 32.581818C814.829343 679.563636 808.623282 682.666667 802.417222 682.666667z" p-id="3342"></path></svg>