<?xml version="1.0" standalone="no"?><!DOCTYPE svg PUBLIC "-//W3C//DTD SVG 1.1//EN" "http://www.w3.org/Graphics/SVG/1.1/DTD/svg11.dtd"><svg class="icon" style="" viewBox="0 0 1024 1024" version="1.1" xmlns="http://www.w3.org/2000/svg" p-id="1368" xmlns:xlink="http://www.w3.org/1999/xlink" width="32" height="32"><defs><style type="text/css"><![CDATA[

]]></style></defs><path d="M912.760988 316.29269l-84.860736 0 0 487.690338c0 77.864392-60.516282 141.212162-134.906549 141.212162L321.946968 945.19519c-74.390267 0-134.931109-63.34777-134.931109-141.212162L187.015859 316.29269l-77.564563 0c-24.836665 0-44.962028-21.068851-44.962028-47.074132 0-25.999141 20.125363-47.069015 44.962028-47.069015l215.473493 0c0.943488-67.686588 52.082192-145.401578 118.058836-145.401578l128.949884 0c65.976644 0 117.14093 77.714989 118.085442 145.401578l222.74306 0c24.836665 0 44.986587 21.069875 44.986587 47.069015C957.747575 295.222815 937.596629 316.29269 912.760988 316.29269L912.760988 316.29269zM571.907926 170.885995 442.983625 170.885995c-8.188496 0.721431-27.120684 27.519774-28.091802 51.263547l185.157024 0C599.079776 198.405769 580.122005 171.606403 571.907926 170.885995L571.907926 170.885995zM737.95573 316.29269 276.98494 316.29269l0 487.690338c0 25.930579 20.171412 47.069015 44.962028 47.069015l371.046734 0c24.787546 0 44.962028-21.138436 44.962028-47.069015L737.95573 316.29269 737.95573 316.29269zM586.472644 744.580103c-24.836665 0-44.957935-21.064758-44.957935-47.069015L541.514709 463.751113c0-26.004257 20.120246-47.069015 44.957935-47.069015 24.840758 0 44.986587 21.064758 44.986587 47.069015l0 233.760998C631.459231 723.515345 611.314425 744.580103 586.472644 744.580103L586.472644 744.580103zM417.819502 744.580103c-24.835641 0-44.957935-21.064758-44.957935-47.069015L372.861568 463.751113c0-26.004257 20.122293-47.069015 44.957935-47.069015 24.839735 0 44.985564 21.064758 44.985564 47.069015l0 233.760998C462.806089 723.515345 442.66026 744.580103 417.819502 744.580103L417.819502 744.580103zM417.819502 744.580103" p-id="1369" fill="#ff4081"></path></svg>