<?xml version="1.0" standalone="no"?><!DOCTYPE svg PUBLIC "-//W3C//DTD SVG 1.1//EN" "http://www.w3.org/Graphics/SVG/1.1/DTD/svg11.dtd"><svg t="1505961641794" class="icon" style="" viewBox="0 0 1024 1024" version="1.1" xmlns="http://www.w3.org/2000/svg" p-id="1867" xmlns:xlink="http://www.w3.org/1999/xlink" width="40" height="40"><defs><style type="text/css"></style></defs><path d="M716.707288 341.92958c0-14.458293-11.736299-26.194592-26.193569-26.194592l-458.853569 0c-14.458293 0-26.193569 11.736299-26.193569 26.194592 0 14.462387 11.735275 26.197662 26.193569 26.197662l458.853569 0C704.972013 368.127242 716.707288 356.391966 716.707288 341.92958z" p-id="1868" fill="#ffffff"></path><path d="M593.910545 498.689856c0-14.461363-11.736299-26.197662-26.193569-26.197662l-336.056825 0c-14.458293 0-26.193569 11.736299-26.193569 26.197662 0 14.462387 11.735275 26.198685 26.193569 26.198685l336.056825 0C582.175269 524.889565 593.910545 513.153266 593.910545 498.689856z" p-id="1869" fill="#ffffff"></path><path d="M231.66015 629.674073c-14.458293 0-26.193569 11.736299-26.193569 26.198685 0 14.458293 11.735275 26.194592 26.193569 26.194592l162.094772 0c14.45727 0 26.193569-11.736299 26.193569-26.194592 0-14.462387-11.736299-26.198685-26.193569-26.198685L231.66015 629.674073z" p-id="1870" fill="#ffffff"></path><path d="M770.332626 760.863974c0 28.897144-23.500227 52.397371-52.397371 52.397371l-523.932774 0c-28.892027 0-52.392254-23.500227-52.392254-52.397371l0-497.734088c0-28.89612 23.500227-52.392254 52.392254-52.392254l26.198685 0c0.728594 0 1.449002-0.037862 2.162246-0.096191l467.216028 0c0.714268 0.058328 1.433652 0.096191 2.162246 0.096191l26.193569 0c28.897144 0 52.397371 23.496134 52.397371 52.392254l0 21.313422 52.392254-6.281053 0-15.033391c0-57.868989-46.920636-104.784508-104.789625-104.784508l-1.359974 0-24.834618 0-471.54052 0-16.648169 0-9.550517 0c-57.867966 0-104.784508 46.915519-104.784508 104.784508l0 497.734088c0 57.868989 46.916543 104.789625 104.784508 104.789625l523.932774 0c57.868989 0 104.789625-46.920636 104.789625-104.789625l0-152.898319-52.392254 6.28003L770.331603 760.863974z" p-id="1871" fill="#ffffff"></path><path d="M927.985226 385.40986l-62.695924-62.695924c-9.0624-9.0624-23.756053-9.0624-32.818453 0l-37.128619 37.128619c-0.164752 0.164752-0.319272 0.334621-0.476861 0.502443l95.488795 95.488795c0.167822-0.158612 0.337691-0.314155 0.50142-0.477884l37.129642-37.128619C937.047626 409.16489 937.047626 394.47226 927.985226 385.40986z" p-id="1872" fill="#ffffff"></path><path d="M545.938973 608.281857l-0.25071 95.376231 97.694019 0.138146 226.241744-226.241744-96.478332-96.478332L545.938973 608.281857zM648.464021 654.366452l-28.236088 2.15406 2.411933-30.391171-29.90817 0.966001 3.858888-26.049283 33.767058-33.767058 52.580542 52.580542L648.464021 654.366452zM780.293489 426.814876c3.063779 3.063779 3.063779 8.03193 0 11.095709l-120.597659 120.597659c-3.063779 3.063779-8.030907 3.063779-11.094686 0-3.063779-3.063779-3.063779-8.030907 0-11.094686l120.597659-120.597659C772.262582 423.751097 777.22971 423.751097 780.293489 426.814876z" p-id="1873" fill="#ffffff"></path></svg>