<?xml version="1.0" standalone="no"?><!DOCTYPE svg PUBLIC "-//W3C//DTD SVG 1.1//EN" "http://www.w3.org/Graphics/SVG/1.1/DTD/svg11.dtd"><svg t="1505963233585" class="icon" style="" viewBox="0 0 1024 1024" version="1.1" xmlns="http://www.w3.org/2000/svg" p-id="5912" xmlns:xlink="http://www.w3.org/1999/xlink" width="40" height="40"><defs><style type="text/css"></style></defs><path d="M682.666667 434.062222a235.093333 235.093333 0 0 0-167.68 71.111111H512a149.333333 149.333333 0 0 1-17.066667-297.813333 147.911111 147.911111 0 0 1 116.622223 36.835556 149.902222 149.902222 0 0 1 49.777777 112.497777v10.382223l8.675556-1.564445a144.355556 144.355556 0 0 1 67.697778 3.128889l7.111111 2.133333a66.133333 66.133333 0 0 0 1.991111-10.808889 235.235556 235.235556 0 0 0-69.973333-171.52 231.822222 231.822222 0 0 0-174.222223-67.271111 235.804444 235.804444 0 0 0-224.853333 223.573334A234.666667 234.666667 0 0 0 465.066667 585.671111a149.191111 149.191111 0 1 1-203.093334-43.377778l7.395556-4.693333-6.115556-6.257778A149.902222 149.902222 0 0 1 227.555556 473.457778l-2.844445-8.533334-7.111111 4.408889a234.382222 234.382222 0 1 0 342.755556 113.777778 149.902222 149.902222 0 0 1 123.022222-64.711111 146.773333 146.773333 0 0 1 109.937778 48.355556A149.475556 149.475556 0 0 1 607.146667 796.444444l-7.537778-4.551111-2.844445 8.391111a149.902222 149.902222 0 0 1-35.413333 57.742223l-6.4 6.4 7.822222 4.693333A234.524444 234.524444 0 1 0 682.666667 434.062222z" p-id="5913" fill="#ffffff"></path></svg>