<?xml version="1.0" standalone="no"?><!DOCTYPE svg PUBLIC "-//W3C//DTD SVG 1.1//EN" "http://www.w3.org/Graphics/SVG/1.1/DTD/svg11.dtd"><svg t="1505963263335" class="icon" style="" viewBox="0 0 1024 1024" version="1.1" xmlns="http://www.w3.org/2000/svg" p-id="6658" xmlns:xlink="http://www.w3.org/1999/xlink" width="40" height="40"><defs><style type="text/css"></style></defs><path d="M931.02598 404.207995 566.585711 103.744829l-2.074242-2.016937c-2.127454-2.016937-4.199649-3.977591-6.274914-3.977591-10.531867-8.067746-23.081695-16.022928-39.833217-16.022928l-6.274914 0c-16.751522 0-29.299303 9.972119-37.70474 18.039865-2.128477 1.960655-4.14439 3.977591-8.347109 7.955182L97.488847 404.207995c-27.228131 19.944238-41.907459 37.983079-44.034912 58.040904-2.074242 14.007015 4.199649 25.996071 14.677281 38.096666l2.1295 1.962701c12.549827 14.060227 22.971178 18.037818 56.529481 18.037818l48.126091 0-7.115048 307.187311c0 58.039881 42.745547 114.738207 101.348246 114.738207L454.648292 942.271604 454.648292 655.423527c0-58.658981 38.487569-57.369615 57.368592-57.369615l0 0c54.063313 0 57.369615 39.32975 57.369615 57.369615l0 286.847054 187.739848-2.018983c58.656935 0 94.232175-34.06177 94.232175-88.12713L851.358523 518.331195l58.658981 0c23.025413 0 31.43085-1.962701 43.980677-14.007015 12.547781-12.045337 16.749476-26.051329 16.749476-42.074258C972.934462 442.191074 956.124612 420.2299 931.02598 404.207995L931.02598 404.207995zM909.961222 481.297744l-3.922333 3.808746c-2.018983 0-9.973142 0-13.892405 0l-89.527013 0 0 348.810291c0 33.840736-17.875113 50.760081-55.57883 50.760081l-85.495186 0-34.790364 0.226151L626.755092 598.053911c0-33.839713-23.586185-57.369615-57.369615-57.369615L454.648292 540.684296c-35.801391 0-57.369615 25.379017-57.369615 57.369615l0 286.848077-115.467825-0.226151c-37.761022 0-56.639998-19.60757-56.639998-57.143465l0-344.219739-78.491679 1.792832c-23.867594 0-23.867594-1.904373-27.900443-5.714142l-3.921309-1.848091c-5.994528-5.659907-5.994528-9.41237-3.979638-11.261485 0-3.809769 3.979638-13.223163 27.844162-32.04688L486.581586 156.016333c3.977591-1.90335 5.939269-5.65786 9.91686-7.506974 3.977591-3.810792 9.972119-9.411347 13.893428-9.411347l5.994528 0c3.978614 0 9.91686 3.697205 15.911388 9.411347 1.960655 1.849114 3.977591 3.697205 7.954159 5.603625l345.897961 282.027282 1.961678 1.905396c15.909341 9.411347 25.88146 20.730137 25.88146 31.991622C915.95575 473.789747 913.993049 477.544257 909.961222 481.297744L909.961222 481.297744z" p-id="6659" fill="#ffffff"></path></svg>