<?xml version="1.0" standalone="no"?><!DOCTYPE svg PUBLIC "-//W3C//DTD SVG 1.1//EN" "http://www.w3.org/Graphics/SVG/1.1/DTD/svg11.dtd"><svg t="1505963352482" class="icon" style="" viewBox="0 0 1050 1024" version="1.1" xmlns="http://www.w3.org/2000/svg" p-id="7837" xmlns:xlink="http://www.w3.org/1999/xlink" width="41.015625" height="40"><defs><style type="text/css"></style></defs><path d="M1023.258 973.322h-49.934V499.127c0-27.547-22.386-49.9-49.866-49.9H673.861v49.9h224.598c13.74 0 25 11.194 25 24.966V948.39c0 13.807-11.26 24.933-25 24.933H598.928V124.797c0-27.548-22.32-49.934-49.866-49.934H174.698c-27.547 0-49.9 22.386-49.9 49.934v848.525H74.867c-13.773 0-24.966 11.194-24.966 24.933 0 13.807 11.194 25 24.966 25h948.392c13.74 0 25-11.193 25-25 0-13.74-11.26-24.933-25-24.933z m-474.196 0H174.698V149.73c0-13.774 11.194-24.933 24.966-24.933h324.43c13.774 0 24.967 11.159 24.967 24.933v823.592zM249.565 449.227h74.866V374.36h-74.866v74.867z m0-149.732h74.866v-74.9h-74.866v74.9zM399.33 449.227h74.866V374.36H399.33v74.867z m0-149.732h74.866v-74.9H399.33v74.9z" fill="#ffffff" p-id="7838"></path></svg>