<?xml version="1.0" standalone="no"?><!DOCTYPE svg PUBLIC "-//W3C//DTD SVG 1.1//EN" "http://www.w3.org/Graphics/SVG/1.1/DTD/svg11.dtd"><svg t="1505963477025" class="icon" style="" viewBox="0 0 1024 1024" version="1.1" xmlns="http://www.w3.org/2000/svg" p-id="8143" xmlns:xlink="http://www.w3.org/1999/xlink" width="40" height="40"><defs><style type="text/css"></style></defs><path d="M924.672 157.696h-825.856c-45.568 0-82.944 37.376-82.944 82.944v506.88c0 46.08 37.376 82.944 82.944 82.944H924.672c46.08 0 82.944-37.376 82.944-82.944v-506.368c0-46.08-36.864-83.456-82.944-83.456m-19.456 59.904l-329.216 291.84c-28.672 25.6-50.176 38.4-63.488 38.4s-34.816-12.8-63.488-38.4l-329.216-291.84H905.216m-827.392 510.976V271.36l257.024 225.792-257.024 231.424m43.52 41.984l258.048-229.376 42.496 37.376c24.576 21.504 54.784 32.256 90.624 32.256s66.048-11.264 90.624-32.256l42.496-37.376 258.048 229.376h-782.336m824.832-41.984L689.152 496.64l257.024-225.28v457.216m0 0" fill="#ffffff" p-id="8144"></path></svg>