<?xml version="1.0" standalone="no"?><!DOCTYPE svg PUBLIC "-//W3C//DTD SVG 1.1//EN" "http://www.w3.org/Graphics/SVG/1.1/DTD/svg11.dtd"><svg t="1505964147961" class="icon" style="" viewBox="0 0 1024 1024" version="1.1" xmlns="http://www.w3.org/2000/svg" p-id="9493" xmlns:xlink="http://www.w3.org/1999/xlink" width="40" height="40"><defs><style type="text/css"></style></defs><path d="M235.256048 235.923244c35.863812-35.863812 77.620845-64.019059 124.110669-83.680864 48.116881-20.35049 99.246375-30.66951 151.970181-30.66951 52.722782 0 103.851253 10.317996 151.968133 30.66951 46.489824 19.662829 88.24481 47.817052 124.111692 83.680864 35.863812 35.863812 64.018036 63.609737 83.680865 110.100584l52.010561 0.419555c-23.212678-69.309552-56.378032-111.068631-95.762018-150.451593-41.031509-41.032532-88.824001-73.252351-142.04411-95.760994-55.115272-23.309892-113.64634-35.130102-173.96717-35.130102-60.321854 0-118.852922 11.819187-173.968194 35.130102-53.220109 22.508643-101.012601 54.728462-142.04411 95.760994-41.034579 41.031509-78.180594 84.880179-95.760994 149.517315l52.011584 0.514723c19.662829-46.490847 47.817052-74.236771 83.682911-110.100584zM787.413654 788.076756c-35.863812 35.866882-77.621868 64.022129-124.110669 83.684958-48.116881 20.351514-99.246375 30.671557-151.968134 30.671556-52.722782 0-103.852276-10.31902-151.968134-30.671556-46.489824-19.662829-88.246857-47.818075-124.111692-83.684958-35.863812-35.865859-64.019059-59.875692-83.682911-106.365516l-52.011584-0.418532c22.508643 53.220109 54.729485 105.682971 95.759971 146.716526 41.034579 41.034579 88.824001 73.255421 142.045133 95.764064 55.116295 23.312962 113.647363 35.132148 173.968194 35.132148 60.321854 0 118.851898-11.821233 173.968193-35.132148 53.220109-22.509666 101.009532-54.731532 142.043087-95.764064 41.034579-41.034579 73.252351-93.495394 95.760994-146.716526l-57.616232 0.418532c-19.660782 46.489824-42.210357 70.498634-78.076216 106.365516zM178.045045 624.454188l33.889855-151.407362 34.663474 151.407362h51.007721l64.312748-222.330668 63.272046 222.330668h51.625797l33.890878-151.407362 34.661428 151.407362h51.008744l64.23293-222.077911 63.345724 222.077911h51.587935l33.92874-151.407362 34.623565 151.407362h51.086516l64.493873-222.896556h-52.438303l-38.372959 144.42432-33.464159-144.42432H784.122701l-34.624589 144.42432-37.520545-144.42432H608.435353l-38.257326 144.42432-33.540907-144.42432h-51.202149l-34.585703 144.42432-37.560454-144.42432H309.661665l-38.254255 144.42432-33.542954-144.42432h-51.202149l-34.585703 144.42432-37.560454-144.42432H62.966077l63.452147 222.896556h51.626821z" p-id="9494" fill="#ffffff"></path></svg>