<?xml version="1.0" standalone="no"?><!DOCTYPE svg PUBLIC "-//W3C//DTD SVG 1.1//EN" "http://www.w3.org/Graphics/SVG/1.1/DTD/svg11.dtd"><svg t="1505965353804" class="icon" style="" viewBox="0 0 1024 1024" version="1.1" xmlns="http://www.w3.org/2000/svg" p-id="15253" xmlns:xlink="http://www.w3.org/1999/xlink" width="40" height="40"><defs><style type="text/css"></style></defs><path d="M509.789404 300.29257v238.523437h166.987326c21.165026 0 38.322308 17.158498 38.322308 38.323524 0 21.166243-17.156066 38.323524-38.322308 38.323525H471.465879a38.313794 38.313794 0 0 1-27.098191-11.225334 38.317443 38.317443 0 0 1-11.224117-27.098191V300.29257c0-21.165026 17.157282-38.322308 38.322308-38.322308s38.323524 17.157282 38.323525 38.322308z" p-id="15254" fill="#ffffff"></path><path d="M484.676232 997.136557c-266.594676 0-483.500619-216.83418-483.500619-483.503051 0-266.594676 216.905943-483.500619 483.500619-483.500619 95.063213 0 187.22674 27.598095 266.149506 79.741344 15.915428 10.561228 20.454701 31.911133 9.816846 47.904405-10.488249 15.917861-31.835722 20.307527-47.978601 9.743867-67.61594-44.705508-146.389101-68.35789-227.987751-68.35789-228.508332 0-414.39713 185.961776-414.39713 414.467676 0 228.509549 185.886365 414.400779 414.39713 414.400779 228.509549 0 414.39713-185.888798 414.39713-414.398346 0-14.503291-0.670187-28.93482-2.158952-43.21796-1.933934-18.891741 11.827407-35.851981 30.795777-37.86011 18.968369-2.009346 36.001587 11.826191 37.934305 30.720365 1.711349 16.734006 2.52871 33.623699 2.52871 50.355272 0.004865 266.670088-216.829315 483.504268-483.49697 483.504268z" p-id="15255" fill="#ffffff"></path><path d="M1007.983058 498.242307l-149.2973 0.201908c-8.2624 0.010947-14.955759-6.61065-14.966706-14.874266-0.004865-3.842326 1.463222-7.318543 3.826514-9.95064l73.702361-98.616057c4.939439-6.532806 14.251515-7.914535 20.836622-2.97388a13.070477 13.070477 0 0 1 2.949554 2.942256l74.812852 99.467474c4.900517 6.51821 3.597848 15.883804-2.972664 20.791619a14.50694 14.50694 0 0 1-8.891233 3.011586z" p-id="15256" fill="#ffffff"></path></svg>