<?xml version="1.0" standalone="no"?><!DOCTYPE svg PUBLIC "-//W3C//DTD SVG 1.1//EN" "http://www.w3.org/Graphics/SVG/1.1/DTD/svg11.dtd"><svg t="1505965193945" class="icon" style="" viewBox="0 0 1024 1024" version="1.1" xmlns="http://www.w3.org/2000/svg" p-id="13274" xmlns:xlink="http://www.w3.org/1999/xlink" width="40" height="40"><defs><style type="text/css"></style></defs><path d="M232.516267 328.2944c-16.9984 105.813333-53.572267 193.450667-95.982933 278.493867l0 102.690133c42.3936-64.290133 76.885333-115.5072 95.982933-163.259733L232.516267 871.424l95.8464 0L328.362667 512c19.080533 33.211733 50.141867 80.418133 79.872 119.808l0-102.690133c-29.730133-53.930667-62.9248-117.828267-79.872-200.823467l63.8976 0 0-79.872L328.362667 248.4224 328.362667 152.576l-95.8464 0 0 95.8464-79.872 0 0 79.872L232.516267 328.2944zM887.330133 805.956267c-82.722133-29.0304-145.3056-62.242133-187.6992-99.584 50.909867-51.831467 92.125867-118.749867 123.938133-218.333867L727.722667 488.0384c-21.230933 68.471467-52.497067 115.643733-88.541867 159.214933-31.812267-35.259733-59.648-82.432-87.1936-159.214933l-95.8464 0c29.678933 95.453867 69.546667 162.321067 122.589867 218.333867-46.677333 39.441067-108.049067 71.253333-186.487467 98.184533l0 66.8672c108.168533-35.293867 189.661867-74.8032 246.9376-112.145067 57.258667 37.341867 139.9808 73.608533 248.149333 108.919467L887.330133 805.956267zM887.466667 296.3456l0-79.872L695.773867 216.4736 695.773867 152.576l-95.8464 0 0 63.8976L424.209067 216.4736l0 79.872L887.466667 296.3456zM615.901867 328.2944l-95.8464 0c-14.865067 47.752533-50.3296 68.949333-111.8208 91.767467l0 50.158933c110.250667-10.359467 177.937067-53.111467 207.6672-146.4832L615.901867 328.2944zM887.466667 420.061867c-57.258667-18.670933-92.740267-39.8848-111.8208-91.767467l-95.8464 0c25.4464 89.224533 93.1328 127.419733 207.6672 141.909333L887.466667 420.061867z" p-id="13275" fill="#ffffff"></path></svg>