<?xml version="1.0" standalone="no"?><!DOCTYPE svg PUBLIC "-//W3C//DTD SVG 1.1//EN" "http://www.w3.org/Graphics/SVG/1.1/DTD/svg11.dtd"><svg t="1505965159665" class="icon" style="" viewBox="0 0 1024 1024" version="1.1" xmlns="http://www.w3.org/2000/svg" p-id="13102" xmlns:xlink="http://www.w3.org/1999/xlink" width="40" height="40"><defs><style type="text/css"></style></defs><path d="M912 136h-800c-48.523 0-88 39.475-88 87.998v576.002c0 48.514 39.477 88 88 88h800c48.523 0 88-39.486 88-88V223.998c0-48.523-39.477-87.998-88-87.998z m40 664c0 22.061-17.946 39.998-40 39.998h-800c-22.054 0-40-17.938-40-39.998V223.998c0-22.054 17.946-39.998 40-39.998h800c22.054 0 40 17.944 40 39.998v576.002z m-647.344-519.96h-96c-22.054 0-40 17.944-40 39.998v96c0 22.056 17.946 40.002 40 40.002h96c22.056 0 40-17.946 40-40.002v-96c0-22.054-17.944-39.998-40-39.998z m-8 128h-80v-80h80v80z m535.392-112.072h-384c-13.259 0-24 10.742-24 24 0 13.259 10.741 24 24 24h384c13.258 0 24-10.741 24-24 0-13.258-10.743-24-24-24z m-384.04 143.954h384c13.258 0 24-10.742 24-24s-10.742-24-24-24h-384c-13.258 0-24 10.742-24 24s10.742 24 24 24z m369.819 144.139H206.285c-21.115 0-38.221 10.75-38.221 24 0 13.251 17.106 24 38.221 24h611.542c21.114 0 38.221-10.749 38.221-24 0-13.25-17.107-24-38.221-24z m-0.064 95.953H206.221c-21.114 0-38.221 10.752-38.221 24 0 13.25 17.107 24.002 38.221 24.002h611.542c21.114 0 38.221-10.752 38.221-24.002 0-13.248-17.108-24-38.221-24z" p-id="13103" fill="#ffffff"></path></svg>