<?xml version="1.0" standalone="no"?><!DOCTYPE svg PUBLIC "-//W3C//DTD SVG 1.1//EN" "http://www.w3.org/Graphics/SVG/1.1/DTD/svg11.dtd"><svg t="1505965292737" class="icon" style="" viewBox="0 0 1024 1024" version="1.1" xmlns="http://www.w3.org/2000/svg" p-id="14339" xmlns:xlink="http://www.w3.org/1999/xlink" width="40" height="40"><defs><style type="text/css"></style></defs><path d="M320.52 155.597c-18.101 0-32.787 14.686-32.787 32.787v316.94c0 18.101 14.686 32.787 32.787 32.787h229.508c18.102 0 32.787-14.686 32.787-32.787v-316.94c0-18.101-14.686-32.787-32.787-32.787H320.52z m196.722 316.94H353.307V221.17h163.935v251.367zM894.419 669.386H347.97c-45.21 0-81.967 36.778-81.967 81.967 0 45.188 36.757 81.967 81.967 81.967h546.449c45.21 0 81.967-36.778 81.967-81.967 0-45.188-36.757-81.967-81.967-81.967z m0 98.361H347.97c-8.88 0-16.394-7.514-16.394-16.393 0-8.88 7.514-16.394 16.394-16.394h546.449c8.88 0 16.394 7.514 16.394 16.394 0 8.879-7.514 16.393-16.394 16.393z" p-id="14340" fill="#ffffff"></path><path d="M723.185 948.865H124.78V80.012h598.404v535.519h65.573V47.225c0-18.101-14.686-32.787-32.787-32.787H91.994c-18.101 0-32.787 14.686-32.787 32.787V981.65c0 18.102 14.686 32.787 32.787 32.787h663.977c18.102 0 32.787-14.686 32.787-32.787V875.115h-65.573v73.75z" p-id="14341" fill="#ffffff"></path></svg>