<?xml version="1.0" standalone="no"?><!DOCTYPE svg PUBLIC "-//W3C//DTD SVG 1.1//EN" "http://www.w3.org/Graphics/SVG/1.1/DTD/svg11.dtd"><svg t="1505965127915" class="icon" style="" viewBox="0 0 1024 1024" version="1.1" xmlns="http://www.w3.org/2000/svg" p-id="12409" xmlns:xlink="http://www.w3.org/1999/xlink" width="40" height="40"><defs><style type="text/css"></style></defs><path d="M75.570651 337.100598c240.178151-241.801115 631.052466-243.12118 872.858698-2.939959l-68.933999 69.405743c-203.485461-202.115254-532.407796-201.011106-734.517933 2.470261L75.570651 337.100598 75.570651 337.100598z" p-id="12410" fill="#ffffff"></path><path d="M514.596639 683.95535c48.649 0 88.084151 39.431058 88.084151 88.088244 0 48.637744-39.435151 88.072895-88.084151 88.072895s-88.084151-39.435151-88.084151-88.072895C426.512489 723.386408 465.94764 683.95535 514.596639 683.95535L514.596639 683.95535z" p-id="12411" fill="#ffffff"></path><path d="M614.052792 442.522626c21.762653-17.816784 49.90562-21.899776 72.863495-3.181459 6.635117 5.409197 12.446473 11.728112 18.497283 17.778922 10.012028 10.013051 20.019962 20.026102 30.033014 30.03813 10.015098-10.012028 20.031219-20.025079 30.043247-30.03813 7.17133-7.169283 15.32708-17.579377 24.452925-22.381753 4.384867-2.308579 9.260921-4.148483 14.347776-5.466502-177.101557-150.564158-443.175495-141.689023-609.751325 26.006304l76.791967 76.270081c91.76089-92.38306 223.298715-121.242342 339.950506-86.46835C612.167862 444.200848 613.064278 443.332061 614.052792 442.522626z" p-id="12412" fill="#ffffff"></path><path d="M610.857007 612.480482c5.430686-6.616698 11.740392-12.440333 17.790178-18.491143 10.012028-10.012028 20.024056-20.024056 30.037107-30.037107-10.012028-10.015098-20.024056-20.031219-30.037107-30.048363-4.519943-4.519943-10.308787-9.428743-15.184841-14.719236-98.020454-38.694277-213.942627-18.23941-292.904003 61.255109l75.587536 75.083046c55.335283-55.707766 140.508127-63.730487 204.489324-23.975041C602.565157 624.965841 605.888855 618.535385 610.857007 612.480482z" p-id="12413" fill="#ffffff"></path><path d="M836.071352 629.396757l-65.462944-65.440431 65.462944-65.467037c9.689686-9.698896 9.689686-25.462928 0-35.153638-9.742898-9.698896-25.473161-9.698896-35.168987 0l-65.459874 65.448618-65.437361-65.448618c-9.714246-9.698896-25.473161-9.698896-35.140335 0-9.739828 9.716292-9.739828 25.454742 0 35.153638l65.437361 65.467037-65.437361 65.440431c-9.739828 9.69378-9.739828 25.433252 0 35.144428 4.846378 4.871961 11.184737 7.280824 17.572214 7.280824 6.337335 0 12.725836-2.408863 17.568121-7.280824l65.437361-65.437361 65.459874 65.437361c4.846378 4.871961 11.209296 7.280824 17.572214 7.280824s12.725836-2.408863 17.596773-7.280824C845.761038 654.828986 845.761038 639.089513 836.071352 629.396757z" p-id="12414" fill="#ffffff"></path></svg>