<?xml version="1.0" standalone="no"?><!DOCTYPE svg PUBLIC "-//W3C//DTD SVG 1.1//EN" "http://www.w3.org/Graphics/SVG/1.1/DTD/svg11.dtd"><svg t="1505965520087" class="icon" style="" viewBox="0 0 1024 1024" version="1.1" xmlns="http://www.w3.org/2000/svg" p-id="16001" xmlns:xlink="http://www.w3.org/1999/xlink" width="40" height="40"><defs><style type="text/css"></style></defs><path d="M812.731272 473.242278l91.038436-0.816598c-3.354398 54.361095-14.517645 102.31527-33.468253 143.82057-18.96391 41.521672-44.971238 78.685084-78.020958 111.490234-33.067116 32.813337-74.68805 61.303204-124.881219 85.476767-111.288642 53.598732-214.313064 62.857607-309.069171 27.745924-94.752014-35.104519-162.309666-93.832062-202.65556-176.190815-37.96159-77.492932-45.23832-159.353334-21.810748-245.591441 29.569456-109.554138 100.842733-191.537338 213.803457-245.941412C463.971124 117.220748 576.184835 111.99984 684.331927 157.530826c76.686567 32.016181 135.910413 89.551572 177.638793 172.623569l-613.81078 295.622928c36.435841 70.15992 90.25663 116.137067 161.441902 137.934512 71.188342 21.804608 142.789077 15.361873 214.769458-19.305695 34.727942-16.724917 65.86715-38.402635 93.431949-65.048505 27.551496-26.629497 48.431036-54.440913 62.686714-83.429131C794.746666 566.94131 805.491381 526.043854 812.731272 473.242278zM732.130559 308.711014c-32.256658-36.275181-65.724911-61.576427-100.408851-75.872015-34.68087-14.287401-74.190723-20.244067-118.531604-17.86795-44.354184 2.391467-86.829578 13.363356-127.408785 32.907481-66.965158 32.251541-115.058502 79.251995-144.293337 140.979872-21.408589 45.01217-27.353998 99.927897-17.836227 164.746158L732.130559 308.711014z" p-id="16002" fill="#ffffff"></path></svg>