<?xml version="1.0" standalone="no"?><!DOCTYPE svg PUBLIC "-//W3C//DTD SVG 1.1//EN" "http://www.w3.org/Graphics/SVG/1.1/DTD/svg11.dtd"><svg t="1487576600563" class="icon" style="" viewBox="0 0 1024 1024" version="1.1" xmlns="http://www.w3.org/2000/svg" p-id="2034" xmlns:xlink="http://www.w3.org/1999/xlink" width="64" height="64"><defs><style type="text/css"></style></defs><path d="M906.453 606.922h-793.758c-8.227 0-15.398-4.641-18.141-12.445-2.531-7.805 0.211-16.031 6.75-20.883l580.922-428.625c3.164-2.32 7.172-4.219 11.18-4.219 0 0 0 0 0 0 10.758 0 103.148 2.109 136.898 51.68 9.914 14.766 18.773 40.289 4.008 76.992-32.273 80.789-9.492 109.477 25.102 152.508 4.219 5.273 8.648 10.969 13.078 16.664 7.594 9.703 14.766 18.141 21.727 26.156 29.953 34.594 53.367 61.383 30.164 129.727-2.531 7.805-9.703 12.445-17.93 12.445zM170.492 568.953h722.039c9.914-35.859-1.898-50.625-27-79.734-6.961-8.016-14.766-16.875-22.992-27.633-4.219-5.484-8.438-10.758-12.656-15.82-36.703-45.773-71.297-88.805-30.797-190.266 6.961-17.297 6.75-30.797-0.211-41.133-17.508-25.734-73.828-33.75-99.352-34.805l-529.031 389.391z" p-id="2035" fill="#53ebbf"></path><path d="M843.805 768.711h-670.781c-45.352 0-82.477-36.914-82.477-82.477v-97.875c0-10.547 8.438-18.984 18.984-18.984h797.555c10.547 0 18.984 8.438 18.984 18.984v97.875c0 45.563-36.914 82.477-82.266 82.477zM128.727 607.555v78.891c0 24.469 19.828 44.297 44.297 44.297h670.781c24.469 0 44.297-19.828 44.297-44.297v-78.891h-759.375z" p-id="2036" fill="#53ebbf"></path><path d="M225.336 882.828h-18.352c-18.773 0-34.172-15.398-34.172-34.172v-98.93c0-9.281 7.594-16.875 16.875-16.875h52.945c9.281 0 16.875 7.594 16.875 16.875v98.93c0 18.773-15.188 34.172-34.172 34.172zM206.562 766.602v82.055c0 0.211 0.211 0.422 0.422 0.422h18.352c0.211 0 0.422-0.211 0.422-0.422v-82.055h-19.195z" p-id="2037" fill="#53ebbf"></path><path d="M480.148 882.828h-18.352c-18.773 0-34.172-15.398-34.172-34.172v-98.93c0-9.281 7.594-16.875 16.875-16.875h52.945c9.281 0 16.875 7.594 16.875 16.875v98.93c0 18.773-15.398 34.172-34.172 34.172zM461.375 766.602v82.055c0 0.211 0.211 0.422 0.422 0.422h18.352c0.211 0 0.422-0.211 0.422-0.422v-82.055h-19.195z" p-id="2038" fill="#53ebbf"></path><path d="M842.961 882.828h-18.352c-18.773 0-34.172-15.398-34.172-34.172v-98.93c0-9.281 7.594-16.875 16.875-16.875h52.945c9.281 0 16.875 7.594 16.875 16.875v98.93c0 18.773-15.398 34.172-34.172 34.172zM824.188 766.602v82.055c0 0.211 0.211 0.422 0.422 0.422h18.352c0.211 0 0.422-0.211 0.422-0.422v-82.055h-19.195z" p-id="2039" fill="#53ebbf"></path><path d="M673.789 592.156c-10.336 0-18.773-7.383-18.984-17.719l-4.43-266.203c-0.211-10.547 8.227-19.617 18.773-19.617 0.211 0 0.211 0 0.422 0 10.336 0 18.773 9.070 18.984 19.406l4.43 265.57c0.211 10.547-8.227 18.773-18.773 18.773-0.211-0.211-0.422-0.211-0.422-0.211z" p-id="2040" fill="#53ebbf"></path></svg>