<?xml version="1.0" standalone="no"?><!DOCTYPE svg PUBLIC "-//W3C//DTD SVG 1.1//EN" "http://www.w3.org/Graphics/SVG/1.1/DTD/svg11.dtd"><svg t="1487581750887" class="icon" style="" viewBox="0 0 1024 1024" version="1.1" xmlns="http://www.w3.org/2000/svg" p-id="3153" xmlns:xlink="http://www.w3.org/1999/xlink" width="64" height="64"><defs><style type="text/css"></style></defs><path d="M549.280068 671.189605c3.723811-8.445346 10.308787-18.555611 18.423605-28.652574l157.641343 221.584678c4.968152 36.653805-8.827039 43.388183-8.827039 43.388183L549.280068 671.189605zM563.223638 711.403492c-7.880481-8.224312-14.285355-16.744359-16.46602-23.318078L563.223638 711.403492zM405.047106 413.903821c-5.933129 8.456602-12.748349 17.256012-19.937075 25.310456L220.589001 206.641337l23.978111-18.23327L405.047106 413.903821zM921.534304 124.480083c0-18.234293-23.846104-36.47268-35.771715-36.47268-5.959735 0-89.424682 24.315802-95.385441 48.631604l0 18.234293 0 24.314779c-11.923564 0-17.885346-12.156878-35.769668-12.156878-11.923564 0-11.923564 6.078439-11.923564 12.156878 0 6.079462 11.923564 6.079462 11.923564 18.23634 0-12.156878-17.885346 0-29.807886 0s-11.923564 6.079462-11.923564 12.157901c0 6.079462 11.923564 6.079462 11.923564 18.23634 0 18.237363-47.694255 48.628534-71.539336 72.946382-23.846104-24.317848-71.539336-42.552142-101.347223-42.552142-41.73145 0-113.270786 42.552142-143.078673 85.101213 11.923564 12.159948 17.885346 18.237363 17.885346 30.394241 0 3.294023-3.923356 11.936867-10.378371 22.786982l-170.083723-238.202147-19.269879-14.039761-17.908882 13.694907 19.847024 27.949562-23.911596 18.20871 172.020842 243.652276c-13.452383 13.407358-27.610848 23.210631-39.740096 23.210631-17.883299 0-41.729403-30.394241-53.652967-42.552142C200.178135 489.204831 164.408467 543.91385 164.408467 610.779747c0 103.337553 125.19435 249.226225 238.46309 249.226225 57.765635 0 132.328841-45.677319 180.290179-120.401184l138.659013 196.386786c35.052331-34.56012 17.659195-86.887906 17.659195-86.887906l-158.336168-221.791385c18.286482-18.990516 39.767725-34.769898 54.233182-34.769898 17.885346 0 29.807886 12.157901 41.729403 18.237363 23.848151-36.47268 77.502142-109.418039 77.502142-151.969157 0-30.394241-23.846104-72.944336-41.73145-97.259114 23.846104-24.314779 53.656037-72.946382 65.577554-72.946382 17.884322 0 5.961782 12.159948 23.846104 12.159948 11.924587 0 11.924587-6.079462 11.924587-6.079462 0-12.157901-5.962805-24.314779-11.924587-30.394241 11.924587-6.078439 29.809933 6.079462 41.73145 0L844.032162 246.057045c-5.959735-6.079462-11.921517 0-11.921517-18.237363 0-12.156878 47.693232-6.078439 53.652967-18.23634C903.649981 179.189102 921.534304 136.64003 921.534304 124.480083zM861.917508 191.348026c-11.921517-6.079462-29.806863-24.315802-41.729403-48.631604 17.885346 0 41.729403-6.076392 59.615773-12.156878C873.840048 148.796908 867.878267 173.110663 861.917508 191.348026zM575.759139 470.968491c-5.961782 0-17.886369-12.157901-29.807886-24.314779l256.349459-237.071394L575.759139 470.968491zM521.897418 652.879588c-3.709485 10.307763-5.754051 20.716834-5.754051 30.845519 0 12.157901 11.923564 42.549072 23.846104 60.786435-35.769668 48.63058-95.385441 85.102237-137.118937 85.102237-29.806863 0-71.538313-24.314779-101.346199-42.552142 41.73145-42.550095 95.385441-91.179652 143.078673-133.730771-17.885346-24.314779-65.577554-79.022775-77.501118-79.022775-17.886369 0-89.425705 97.257068-131.155109 145.889695-23.846104-36.47268-41.73145-79.024821-41.73145-109.417015 0-48.631604 29.807886-79.024821 83.460854-133.730771 17.886369 12.156878 41.732473 24.312732 59.615773 24.312732 17.283642 0 38.730093-9.92607 58.983369-26.364461L521.897418 652.879588zM545.747615 611.701746c-7.30436 9.002025-13.56904 18.621103-18.423605 28.457122L405.047106 467.353151c7.531534-6.953366 14.795984-14.749936 21.452591-23.255657L545.747615 611.701746zM623.452371 319.000358l-131.157155 121.574916c17.886369 24.315802 47.694255 54.707996 77.502142 85.102237 35.769668-36.47268 77.501118-85.102237 125.195374-133.730771 23.845081 36.470633 23.845081 36.470633 23.845081 66.864874 0 18.237363 0 24.314779-5.961782 30.394241-5.961782 24.314779-23.846104 48.628534-41.73145 66.865897-36.369326-10.115382-80.051197 9.674337-111.769596 40.727587L438.297394 427.266154c4.623297-7.395434 8.776897-15.150048 12.268418-23.163559 5.959735-18.23634 5.959735-42.550095 5.959735-60.788481 53.656037-42.549072 47.694255-48.628534 95.387487-48.628534C581.720921 294.685579 581.720921 288.606117 623.452371 319.000358zM390.947993 647.25038c-35.768645 36.473703-83.460854 79.022775-125.192304 109.417015l0-18.234293c35.769668-36.473703 71.538313-79.023798 101.347223-115.496477L390.947993 647.25038z" p-id="3154" fill="#53ebbf"></path></svg>