<?xml version="1.0" standalone="no"?><!DOCTYPE svg PUBLIC "-//W3C//DTD SVG 1.1//EN" "http://www.w3.org/Graphics/SVG/1.1/DTD/svg11.dtd"><svg t="1487582074022" class="icon" style="" viewBox="0 0 1024 1024" version="1.1" xmlns="http://www.w3.org/2000/svg" p-id="9658" xmlns:xlink="http://www.w3.org/1999/xlink" width="64" height="64"><defs><style type="text/css"></style></defs><path d="M367.284 932.881c-74.708 23.948-151.611-7.223-234.977-95.255-146.105-154.313-90.621-266.601-18.3-333.634 19.142-17.738 41.065-30.642 65.237-38.395 34.404-11.018 67.373-10.063 93.878-9.306 16.247 0.479 30.301 0.902 38.537-1.74 1.855-0.591 3.26-1.324 4.187-2.138 16.473-14.617 27.995-46.038 36.427-69.003 4.103-11.271 7.643-20.967 11.355-27.629 13.213-23.975 34.009-34.123 62.343-30.047 29.905 4.329 48.177 21.445 51.437 48.176 1.433 12.057-3.484 24.006-7.815 34.572-2.08 5.089-5.454 13.296-5.51 16.893 4.133 1.714 15.319 1.799 25.465 0.226l254.374-234.499 38.788-63.495L949.329 40.67l60.655 12.281-3.682 78.083-43.065 5.31-101.241 93.825-54.893 8.713-255.329 254.907c-4.609 6.717-8.965 17.905-5.762 21.277 5.257 5.537 14.757 5.647 31.115 5.34 7.194-0.111 15.319-0.279 23.777 0.389l1.857 0.115c12.759 0.897 42.61 3.034 51.547 40.276 8.601 35.642-14.447 60.348-31.03 67.513-2.305 1.013-7.143 2.756-13.547 5.065-20.464 7.306-68.413 24.422-84.125 39.012-3.686 3.964-5.483 25.015-6.831 40.416-3.933 45.729-9.895 114.851-64.537 165.47-29.227 27.097-57.671 44.832-86.957 54.22zM189.136 494.884c-20.096 6.465-37.665 16.839-53.74 31.703-90.197 83.649-83.647 181.235 19.452 290.125 74.202 78.333 140.423 106.781 202.542 86.878 24.901-7.982 49.579-23.526 75.468-47.529 46.073-42.697 51.213-102.368 54.951-145.909 2.469-28.276 4.215-48.681 16.415-59.983 20.291-18.832 68.636-36.114 94.607-45.39 5.54-1.995 9.697-3.429 11.693-4.299 4.076-1.771 18.386-12.507 13.549-32.519-3.429-14.307-9.922-15.403-23.105-16.357l-2.054-0.143c-6.97-0.533-13.997-0.39-20.772-0.252-19.451 0.337-39.547 0.704-54.668-15.262-18.469-19.479-6.352-47.727 3.683-61.36l1.517-1.716 263.253-262.832 55.484-8.768 101.692-94.247 29.54-3.652-3.398-26.139-22.262-4.5-148.717 79.403-37.467 60.206-262.3 241.812-4.163 0.844c-11.693 2.443-50.759 8.628-63.523-14.617-8.039-14.559-1.655-30.105 3.965-43.849 2.783-6.745 6.239-15.178 5.734-19.367-1.041-8.768-4.807-18.129-24.652-20.994-6.462-0.927-11.749-0.704-16.079 0.673-3.71 1.209-9.331 3.964-14.841 13.97-2.587 4.639-5.903 13.773-9.443 23.443-9.529 25.942-22.569 61.526-44.748 81.203-13.323 11.805-36.485 12.394-64.142 11.607-25.348-0.727-54.132-1.571-83.477 7.817z" fill="#53ebbf" p-id="9659"></path></svg>