<?xml version="1.0" standalone="no"?><!DOCTYPE svg PUBLIC "-//W3C//DTD SVG 1.1//EN" "http://www.w3.org/Graphics/SVG/1.1/DTD/svg11.dtd"><svg t="1487581879487" class="icon" style="" viewBox="0 0 1024 1024" version="1.1" xmlns="http://www.w3.org/2000/svg" p-id="5784" xmlns:xlink="http://www.w3.org/1999/xlink" width="64" height="64"><defs><style type="text/css"></style></defs><path d="M512.001 159.189795h-88.417831c-9.773981 0-17.683966-7.907985-17.683966-17.683966s7.907985-17.683966 17.683966-17.683966H512.001c9.773981 0 17.683966 7.907985 17.683966 17.683966s-7.909985 17.683966-17.683966 17.683966zM512.001 247.607626h-88.417831c-9.773981 0-17.683966-7.907985-17.683966-17.683966s7.907985-17.683966 17.683966-17.683966H512.001a17.673966 17.673966 0 0 1 17.683966 17.683966 17.675966 17.675966 0 0 1-17.683966 17.683966z" fill="#53ebbf" p-id="5785"></path><path d="M547.366932 159.189795H512.001c-9.773981 0-17.683966-7.907985-17.683966-17.683966s7.907985-17.683966 17.683966-17.683966h35.365932c9.773981 0 17.683966 7.907985 17.683966 17.683966s-7.909985 17.683966-17.683966 17.683966zM547.366932 247.607626H512.001c-9.773981 0-17.683966-7.907985-17.683966-17.683966s7.907985-17.683966 17.683966-17.683966h35.365932a17.673966 17.673966 0 0 1 17.683966 17.683966 17.673966 17.673966 0 0 1-17.683966 17.683966z" fill="#53ebbf" p-id="5786"></path><path d="M487.255047 3.544093c-7.839985-5.853989-18.909964-4.299992-24.763952 3.523993-5.869989 7.821985-4.283992 18.909964 3.523993 24.763953 18.009966 13.503974 28.337946 34.139935 28.337946 56.623892v813.436443h35.365932V88.455931c0-33.707935-15.47397-64.671876-42.463919-84.911838z" fill="#53ebbf" p-id="5787"></path><path d="M545.766935 1023.92414l-159.151695-14.467972a17.683966 17.683966 0 0 1-16.083969-17.609966v-73.803859a17.679966 17.679966 0 0 1 16.083969-17.609966l159.151695-14.467973c10.35598-0.941998 19.283963 7.211986 19.283963 17.609967v102.739803c0 10.39798-8.927983 18.551964-19.283963 17.609966z" fill="#53ebbf" p-id="5788"></path><path d="M264.415474 972.626238a17.701966 17.701966 0 0 1-8.891983-2.399995c-8.427984-4.921991-11.277978-15.74997-6.371988-24.193954L744.284555 97.229914c4.955991-8.427984 15.76597-11.241978 24.193954-6.371988 8.427984 4.921991 11.277978 15.74997 6.371988 24.193954L279.715445 963.854255a17.709966 17.709966 0 0 1-15.299971 8.771983z" fill="#53ebbf" p-id="5789"></path><path d="M545.766935 885.962404L512.001 889.032398v131.821748l33.765935 3.069994c10.35598 0.941998 19.283963-7.211986 19.283963-17.609966v-102.739803c0-10.39998-8.929983-18.551964-19.283963-17.611967z" fill="#53ebbf" p-id="5790"></path><path d="M405.899203 898.67838l-19.283963 1.751997a17.683966 17.683966 0 0 0-16.083969 17.609966v73.803859a17.683966 17.683966 0 0 0 16.083969 17.609966l19.283963 1.751996v-112.527784z" fill="#53ebbf" p-id="5791"></path></svg>