<?xml version="1.0" encoding="utf-8"?>
<!-- Generator: Adobe Illustrator 15.0.0, SVG Export Plug-In . SVG Version: 6.00 Build 0)  -->
<!DOCTYPE svg PUBLIC "-//W3C//DTD SVG 1.1//EN" "http://www.w3.org/Graphics/SVG/1.1/DTD/svg11.dtd">
<svg version="1.1" id="图层_1" xmlns="http://www.w3.org/2000/svg" xmlns:xlink="http://www.w3.org/1999/xlink" x="0px" y="0px"
	 width="64px" height="64px" viewBox="0 0 64 64" enable-background="new 0 0 64 64" xml:space="preserve">
<path fill="#53EBBF" d="M42.779,41.302c-1.063-0.62-1.418-1.983-0.797-3.045c0.021-0.039,0.047-0.077,0.072-0.114
	c0.534-0.652,0.986-1.371,1.348-2.137c2.336-5.886-1.227-11.372-7.789-12.907V10.826c0.006-0.537,0.443-0.968,0.979-0.968
	c0.535,0.006,0.975-0.422,0.979-0.957c0-0.004,0-0.007,0-0.011V0.979c-0.006-0.532-0.436-0.962-0.967-0.968h-9.181
	c-0.536,0.006-0.968,0.442-0.968,0.979v7.911c0,0.541,0.438,0.979,0.979,0.979s0.979,0.438,0.979,0.979v12.239
	c-6.565,1.536-10.125,7.021-7.789,12.907c0.359,0.765,0.811,1.481,1.346,2.136c0.685,1.021,0.412,2.403-0.608,3.088
	c-0.038,0.025-0.076,0.052-0.115,0.072c-3.616,2.227-5.919,5.563-5.919,9.348C15.33,57.413,21.26,64,32.02,64
	c10.759,0,16.689-6.587,16.689-13.352C48.709,46.887,46.395,43.538,42.779,41.302z M30.606,22.687V10.826
	c0-1.284-0.766-2.445-1.947-2.949V2.214h6.676v5.663c-1.181,0.504-1.946,1.665-1.946,2.949v11.85h-2.76L30.606,22.687z
	 M32.02,61.764h-0.145c-9.458,0-14.409-5.563-14.409-11.127c0-2.813,1.769-5.563,4.862-7.455c1.078-0.666,1.831-1.75,2.081-2.992
	c0.233-1.164-0.028-2.375-0.723-3.338l-0.223-0.313c-0.336-0.414-0.624-0.865-0.856-1.346c-0.924-2.063-0.727-4.45,0.523-6.333
	c1.546-2.303,4.562-3.728,8.122-3.928h1.357c3.595,0.189,6.608,1.625,8.156,3.928c1.25,1.881,1.445,4.271,0.521,6.333
	c-0.231,0.479-0.521,0.932-0.854,1.346l-0.224,0.313c-0.694,0.963-0.957,2.174-0.726,3.338c0.25,1.242,1.004,2.326,2.082,2.992
	c3.094,1.914,4.86,4.629,4.86,7.455C46.484,56.156,41.521,61.741,32.02,61.764z"/>
<path fill="#53EBBF" d="M32.02,42.348c2.766,0,5.007-2.242,5.007-5.007s-2.241-5.007-5.007-5.007s-5.007,2.242-5.007,5.007
	S29.254,42.348,32.02,42.348L32.02,42.348z M32.02,34.559c1.537,0,2.781,1.246,2.781,2.782s-1.244,2.782-2.781,2.782
	c-1.537,0-2.782-1.246-2.782-2.782S30.483,34.559,32.02,34.559L32.02,34.559z M36.014,45.074H27.97
	c-0.614-0.002-1.113,0.496-1.114,1.111c-0.001,0.611,0.497,1.111,1.111,1.111c0,0,0.001,0,0.002,0h8.044
	c0.613,0,1.11-0.5,1.109-1.111C37.125,45.572,36.627,45.074,36.014,45.074z"/>
</svg>
