<?xml version="1.0" encoding="utf-8"?>
<!-- Generator: Adobe Illustrator 15.0.0, SVG Export Plug-In . SVG Version: 6.00 Build 0)  -->
<!DOCTYPE svg PUBLIC "-//W3C//DTD SVG 1.1//EN" "http://www.w3.org/Graphics/SVG/1.1/DTD/svg11.dtd">
<svg version="1.1" id="图层_1" xmlns="http://www.w3.org/2000/svg" xmlns:xlink="http://www.w3.org/1999/xlink" x="0px" y="0px"
	 width="64px" height="64px" viewBox="0 0 64 64" enable-background="new 0 0 64 64" xml:space="preserve">
<path fill="none" stroke="#53EBBF" stroke-width="2" stroke-miterlimit="10" d="M44.578,31.743c0-7.128-5.777-12.906-12.905-12.906
	c-7.127,0-12.905,5.778-12.905,12.906c0,4.876,1.706,9.12,5.697,11.315v8.414h3.134v-7.484c1.281,0.426,2.65,0.66,4.074,0.66
	c1.425,0,2.794-0.234,4.075-0.66v7.484h3.134v-8.414C42.873,40.863,44.578,36.619,44.578,31.743z M31.673,36.542
	c-2.651,0-4.799-2.147-4.799-4.799c0-2.652,2.148-4.799,4.799-4.799c2.65,0,4.8,2.149,4.8,4.799
	C36.473,34.393,34.322,36.542,31.673,36.542z"/>
<path fill="none" stroke="#53EBBF" stroke-width="2" stroke-miterlimit="10" d="M24.716,21.278l0.449-4.282L14.051,15.34V9.216
	c3.742-0.047,5.694-0.591,5.694-1.255s-1.953-1.207-5.694-1.255V5.388h-3.067v1.318C7.243,6.754,5.291,7.298,5.291,7.961
	c0,0.664,1.953,1.207,5.694,1.255v5.979l-7.022-1.097l-2.6,19.003l9.088,1.379v12.33l-2.877,3.879l0.754,0.754l4.189-3.188
	l4.189,3.188l0.754-0.754l-2.877-3.879V34.771l4.683,0.641"/>
<path fill="none" stroke="#53EBBF" stroke-width="2" stroke-miterlimit="10" d="M44.491,35.412l3.683-0.641v12.039l-2.877,3.879
	l0.754,0.754l4.189-3.189l4.189,3.189l0.754-0.754l-2.879-3.879V34.48h0.002l9.088-1.381l-2.599-19.002l-7.558,1.307l6.902-6.234
	l-0.611-3.874l-12.6,10.425l-7.338,1.276l0.449,3.282"/>
</svg>
