<?xml version="1.0" standalone="no"?><!DOCTYPE svg PUBLIC "-//W3C//DTD SVG 1.1//EN" "http://www.w3.org/Graphics/SVG/1.1/DTD/svg11.dtd"><svg t="1552828698067" class="icon" style="" viewBox="0 0 1024 1024" version="1.1" xmlns="http://www.w3.org/2000/svg" p-id="2903" xmlns:xlink="http://www.w3.org/1999/xlink" width="32" height="32"><defs><style type="text/css"></style></defs><path d="M918.064784 956.685895 106.693486 956.685895c-14.145162 0-25.611308-11.466146-25.611308-25.611308L81.082178 191.053314c0-14.145162 11.467169-25.611308 25.611308-25.611308l811.372322 0c14.145162 0 25.611308 11.467169 25.611308 25.611308l0 740.02025C943.677115 945.219749 932.209946 956.685895 918.064784 956.685895zM132.304793 905.462257l760.148683 0L892.453477 216.665645 132.304793 216.665645 132.304793 905.462257z" p-id="2904" fill="#ffffff"></path><path d="M915.399071 410.394904 109.150444 410.394904c-14.145162 0-25.611308-11.467169-25.611308-25.611308s11.467169-25.611308 25.611308-25.611308l806.248627 0c14.145162 0 25.611308 11.467169 25.611308 25.611308S929.544233 410.394904 915.399071 410.394904z" p-id="2905" fill="#ffffff"></path><path d="M248.687454 313.735447c-14.145162 0-25.611308-11.467169-25.611308-25.611308L223.076146 91.962481c0-14.145162 11.467169-25.611308 25.611308-25.611308s25.611308 11.467169 25.611308 25.611308l0 196.160635C274.299785 302.269301 262.832615 313.735447 248.687454 313.735447z" p-id="2906" fill="#ffffff"></path><path d="M786.618033 313.735447c-14.145162 0-25.611308-11.467169-25.611308-25.611308L761.006725 91.962481c0-14.145162 11.466146-25.611308 25.611308-25.611308s25.611308 11.467169 25.611308 25.611308l0 196.160635C812.229341 302.269301 800.763195 313.735447 786.618033 313.735447z" p-id="2907" fill="#ffffff"></path><path d="M468.548884 770.868839c-6.792707 0-13.307074-2.698458-18.110473-7.500834l-87.661525-87.663572c-10.001795-10.000771-10.001795-26.218128 0-36.220946 10.002818-10.000771 26.219151-10.001795 36.220946 0.001023l69.551052 69.552076 157.211555-157.213601c10.002818-10.000771 26.219151-10.000771 36.220946 0 10.001795 10.001795 10.001795 26.219151 0.001023 36.220946l-175.323051 175.324074C481.855958 768.17038 475.34159 770.868839 468.548884 770.868839z" p-id="2908" fill="#ffffff"></path></svg>