<?xml version="1.0" standalone="no"?><!DOCTYPE svg PUBLIC "-//W3C//DTD SVG 1.1//EN" "http://www.w3.org/Graphics/SVG/1.1/DTD/svg11.dtd"><svg t="1499245801421" class="icon" style="" viewBox="0 0 1024 1024" version="1.1" xmlns="http://www.w3.org/2000/svg" p-id="5724" xmlns:xlink="http://www.w3.org/1999/xlink" width="40" height="40"><defs><style type="text/css"></style></defs><path d="M895.590933 255.136841c0-21.350261-17.289782-38.641065-38.637995-38.641065H195.880761c-21.349237 0-38.637995 17.289782-38.637996 38.641065v581.940932c0 21.348214 17.286712 38.637995 38.637996 38.637996h661.074224c21.348214 0 38.637995-17.286712 38.637995-38.637996l-0.002047-581.940932z m52.735062 581.940932c0 50.468438-40.902572 91.373057-91.372034 91.373057H195.880761c-50.472532 0-91.373057-40.902572-91.373057-91.373057V255.136841c0-50.473555 40.900525-91.373057 91.373057-91.373057h661.074224c50.468438 0 91.37408 40.899502 91.37408 91.373057v581.940932h-0.00307z" fill="#ffffff" p-id="5725"></path><path d="M289.106002 308.800042c-14.560624 0-26.394137-11.833513-26.394137-26.396184V84.632539c0-14.561647 11.833513-26.39516 26.394137-26.39516s26.399253 11.83249 26.399253 26.39516v197.772342c-0.059352 14.559601-11.837606 26.39516-26.399253 26.395161zM750.554676 308.800042c-14.558577 0-26.393113-11.833513-26.393114-26.396184V84.632539c0-14.561647 11.834536-26.39516 26.393114-26.39516 14.564717 0 26.339902 11.83249 26.339901 26.39516v197.772342c0.055259 14.559601-11.775184 26.39516-26.339901 26.395161zM919.261029 365.537254H128.175753c-7.309476 0-13.166881-5.915733-13.166881-13.167904 0-7.309476 5.91471-13.169951 13.166881-13.169951h791.086299c7.312546 0 13.170974 5.91778 13.170974 13.169951a13.123902 13.123902 0 0 1-13.171997 13.167904zM295.896662 507.269255a7.615445 7.615445 0 0 0 5.333472 1.972935c2.091638-0.058328 3.888564-0.929162 5.222955-2.321882l15.259542-15.892969-0.057305-0.116656 71.994707-74.373895c1.332345-1.335415 2.088568-3.192715 2.029216-5.222955-0.058328-1.971911-0.986467-3.768837-2.378163-5.044899l-12.762675-12.299118c-1.393743-1.276063-4.060479-2.032286-6.152117-1.97498-2.030239 0.059352-3.072989 0.929162-4.350075 2.263553l-39.625485 44.728714c-8.353248 9.108448-27.731598 29.297256-31.44313 29.297256-3.654226 0-8.527211-6.033413-9.91993-7.307429l-16.182565-14.85329c-1.450025-1.276063-3.309372-2.030239-5.39487-1.973957a7.523347 7.523347 0 0 0-5.220908 2.322905l-10.150174 10.556426c-1.334391 1.39272-2.091638 3.25309-2.032286 5.222955a7.147794 7.147794 0 0 0 2.320858 5.103228l43.508933 39.914058zM504.225431 507.269255a7.620561 7.620561 0 0 0 5.337565 1.972935c2.088568-0.058328 3.88447-0.929162 5.219885-2.321882l15.319917-15.892969-0.11461-0.116656 71.993684-74.373895c1.337461-1.335415 2.090615-3.192715 2.029216-5.222955a7.111978 7.111978 0 0 0-2.321881-5.044899l-12.762675-12.299118c-1.387603-1.276063-4.116761-2.032286-6.204306-1.97498-2.032286 0.059352-3.076058 0.929162-4.354168 2.263553l-39.56204 44.728714c-8.413624 9.108448-27.792996 29.297256-31.505552 29.297256-3.654226 0-8.527211-6.033413-9.915837-7.307429l-16.186657-14.85329a7.609305 7.609305 0 0 0-5.336542-1.973957 7.523347 7.523347 0 0 0-5.221932 2.322905l-10.210549 10.556426a7.222495 7.222495 0 0 0-2.030239 5.222955c0.057305 2.033309 0.984421 3.827165 2.378163 5.103228l43.448558 39.914058zM705.070762 507.269255a7.621585 7.621585 0 0 0 5.336542 1.972935 7.416923 7.416923 0 0 0 5.220908-2.321882l15.315824-15.95232-0.113587-0.114611 71.996754-74.375941c1.333368-1.334391 2.089591-3.190669 2.029216-5.221931a7.145747 7.145747 0 0 0-2.320858-5.104252l-12.761652-12.30014c-1.393743-1.276063-4.119831-2.030239-6.151093-1.972934-2.029216 0.057305-3.076058 0.928139-4.409427 2.263553l-39.565111 44.727691c-8.414647 9.05012-27.788903 29.297256-31.501458 29.297256-3.656273 0-8.531304-6.033413-9.91993-7.310499l-16.185634-14.851243c-1.38965-1.27504-3.25002-2.029216-5.334495-1.973958a7.531534 7.531534 0 0 0-5.221932 2.322905l-10.211572 10.615779c-1.334391 1.335415-2.090615 3.193739-2.03331 5.222954 0.061398 2.030239 0.988514 3.826142 2.323929 5.102205l43.506886 39.974433zM293.749766 655.609769a7.607258 7.607258 0 0 0 5.333472 1.973957 7.427156 7.427156 0 0 0 5.222954-2.321882l15.314801-15.95539-0.058328-0.057305 71.994707-74.375941c1.335415-1.335415 2.089591-3.191692 2.034333-5.221932a7.160073 7.160073 0 0 0-2.322905-5.104251l-12.762675-12.30014c-1.452071-1.216711-4.118807-1.972934-6.207376-1.91563-2.030239 0.059352-3.075035 0.929162-4.409426 2.264577l-39.566134 44.729737c-8.353248 9.106402-27.729551 29.296233-31.44313 29.296233-3.654226 0-8.528234-6.033413-9.921977-7.308452l-16.244985-14.852267a7.507998 7.507998 0 0 0-5.335519-1.973957 7.521301 7.521301 0 0 0-5.220908 2.320858l-10.153244 10.56052c-1.334391 1.334391-2.087545 3.189645-2.03024 5.219885a7.143701 7.143701 0 0 0 2.320859 5.104251l43.455721 39.917129zM293.749766 804.6492a7.592932 7.592932 0 0 0 5.333472 1.972934 7.41283 7.41283 0 0 0 5.222954-2.319835l15.314801-15.954367-0.116657-0.116657 71.995731-74.373894c1.334391-1.391696 2.091638-3.192715 2.032286-5.222955a7.145747 7.145747 0 0 0-2.323928-5.102205l-12.761652-12.301164c-1.393743-1.277086-4.119831-2.030239-6.15007-1.973957-2.030239 0.056282-3.077082 0.929162-4.351098 2.263553L328.379471 736.248344c-8.4126 9.051143-27.788903 29.29828-31.500435 29.298279-3.65525 0-8.528234-6.033413-9.921977-7.310499l-16.184611-14.851243c-1.449002-1.160429-3.306302-1.916653-5.393847-1.855254a7.511067 7.511067 0 0 0-5.220908 2.318812l-10.211572 10.617825c-1.333368 1.334391-2.088568 3.193739-2.029217 5.220908 0.058328 2.032286 0.984421 3.829212 2.377141 5.104251l43.455721 39.857777zM502.137887 655.609769a7.611352 7.611352 0 0 0 5.333471 1.973957 7.41897 7.41897 0 0 0 5.221932-2.321882l15.31787-15.95539-0.113587-0.057305 71.993685-74.375941c1.335415-1.335415 2.091638-3.191692 2.033309-5.221932-0.060375-1.974981-0.984421-3.770883-2.378163-5.046946l-12.762675-12.30014c-1.391696-1.27504-4.060479-2.031263-6.150071-1.974981-2.030239 0.060375-3.075035 0.929162-4.352121 2.264576l-39.567157 44.729738c-8.4126 9.106402-27.788903 29.296233-31.501458 29.296233-3.654226 0-8.528234-6.033413-9.919931-7.308453l-16.182564-14.852266a7.615445 7.615445 0 0 0-5.338588-1.973958c-2.087545 0.058328-3.943822 0.928139-5.220909 2.26253l-10.208502 10.618849c-1.336438 1.334391-2.091638 3.189645-2.03331 5.219884 0.058328 2.032286 0.986467 3.828188 2.378164 5.104252l43.450605 39.919175zM702.982194 655.609769a7.624654 7.624654 0 0 0 5.340635 1.973957 7.411807 7.411807 0 0 0 5.216815-2.321882l15.318894-15.95539-0.112564-0.112563 71.993685-74.376965c1.333368-1.335415 2.089591-3.193739 2.029216-5.222955a7.14677 7.14677 0 0 0-2.319835-5.104251l-12.762675-12.299117c-1.390673-1.27504-4.116761-2.031263-6.148024-1.974981-2.032286 0.059352-3.076058 0.928139-4.41352 2.263553l-39.562041 44.844348c-8.411577 9.051143-27.79095 29.296233-31.501458 29.296233-3.654226 0-8.528234-6.033413-9.91686-7.308453l-16.186657-14.851243c-1.391696-1.276063-3.248997-2.031263-5.338589-1.973958a7.537673 7.537673 0 0 0-5.221931 2.320859l-10.209526 10.616802c-1.334391 1.337461-2.087545 3.193739-2.029216 5.221931 0.056282 2.029216 0.988514 3.828188 2.321881 5.104252l43.50177 39.859823zM714.0646 718.728318c-16.359596 0-29.413913-0.058328-29.413913-0.058328v83.134419s13.054317-0.058328 29.413913-0.058329h23.668049c16.358573 0 29.996175 0.058328 29.996175 0.058329v-83.134419s-13.633508 0.058328-29.996175 0.058328h-23.668049zM476.839711 718.66999v83.07609s13.287631-0.058328 29.646204-0.058328h23.669072c16.35755 0 29.760814 0.058328 29.760814 0.058328l-0.11461-53.372581c0-16.360619 0.11461-29.703509 0.11461-29.703509h-83.07609z" fill="#ffffff" p-id="5726"></path></svg>