<?xml version="1.0" standalone="no"?><!DOCTYPE svg PUBLIC "-//W3C//DTD SVG 1.1//EN" "http://www.w3.org/Graphics/SVG/1.1/DTD/svg11.dtd"><svg t="1499245894150" class="icon" style="" viewBox="0 0 1024 1024" version="1.1" xmlns="http://www.w3.org/2000/svg" p-id="7237" xmlns:xlink="http://www.w3.org/1999/xlink" width="40" height="40"><defs><style type="text/css"></style></defs><path d="M896 385.123191 896 385.123191 896 191.839086C896 121.410391 838.448026 64 767.454067 64L256.545933 64C185.724823 64 128 121.475425 128 192.374954L128 831.625043C128 902.588154 185.515683 960 256.464872 960L381.953784 960 381.953784 896 256.464872 896C220.825001 896 192 867.20503 192 831.625043L192 192.374954C192 156.913621 220.979021 128 256.545933 128L767.454067 128C803.106426 128 832 156.761847 832 191.839086L832 385.123191 896 385.123191ZM793.273683 492.434619 793.273683 492.434619 883.783347 492.434619 517.728577 858.489389 472.473743 813.234554 536.013653 820.894835 528.871259 880.139053C527.479766 891.681107 529.799504 893.992096 541.333751 892.601542L600.577969 885.459149 608.238245 948.999059 562.983411 903.744224 929.038182 537.689453 929.038182 628.199121 793.273683 492.434619ZM838.528512 447.179785 974.293018 582.944287 608.238245 948.999059 548.994028 956.141453C496.454294 962.475565 458.94805 925.426502 465.331349 872.478771L472.473743 813.234554 838.528512 447.179785 838.528512 447.179785ZM352 320 672 320C689.673114 320 704 305.673112 704 288 704 270.326888 689.673114 256 672 256L352 256C334.326888 256 320 270.326888 320 288 320 305.673112 334.326888 320 352 320L352 320ZM352 512 608 512C625.673112 512 640 497.673112 640 480 640 462.326888 625.673112 448 608 448L352 448C334.326888 448 320 462.326888 320 480 320 497.673112 334.326888 512 352 512L352 512ZM352 704 416 704C433.673112 704 448 689.673114 448 672 448 654.326886 433.673112 640 416 640L352 640C334.326888 640 320 654.326886 320 672 320 689.673114 334.326888 704 352 704L352 704Z" p-id="7238" fill="#ffffff"></path></svg>