<?xml version="1.0" encoding="utf-8"?>
<!-- Generator: Adobe Illustrator 15.0.0, SVG Export Plug-In . SVG Version: 6.00 Build 0)  -->
<!DOCTYPE svg PUBLIC "-//W3C//DTD SVG 1.1//EN" "http://www.w3.org/Graphics/SVG/1.1/DTD/svg11.dtd">
<svg version="1.1" id="图层_1" xmlns="http://www.w3.org/2000/svg" xmlns:xlink="http://www.w3.org/1999/xlink" x="0px" y="0px"
	 width="15.333px" height="54.667px" viewBox="2.333 0 15.333 54.667" enable-background="new 2.333 0 15.333 54.667"
	 xml:space="preserve">
<g>
	<circle fill="#86CEF9" cx="7.875" cy="10.167" r="3.834"/>
	<path fill="#696B76" d="M9.879,51.917c0,0.967-0.636,1.75-1.421,1.75l0,0c-0.786,0-1.422-0.783-1.422-1.75v-26
		c0-0.967,0.636-1.75,1.422-1.75l0,0c0.785,0,1.421,0.783,1.421,1.75V51.917z"/>
	<path fill="#86CFFC" d="M7.667,1.334v3.499c3.037,0,5.5,2.462,5.5,5.5s-2.463,5.5-5.5,5.5v3.501c4.971,0,9-4.028,9-9
		S12.637,1.334,7.667,1.334z"/>
</g>
</svg>
