<?xml version="1.0" encoding="utf-8"?>
<!-- Generator: Adobe Illustrator 15.0.0, SVG Export Plug-In . SVG Version: 6.00 Build 0)  -->
<!DOCTYPE svg PUBLIC "-//W3C//DTD SVG 1.1//EN" "http://www.w3.org/Graphics/SVG/1.1/DTD/svg11.dtd">
<svg version="1.1" id="图层_1" xmlns="http://www.w3.org/2000/svg" xmlns:xlink="http://www.w3.org/1999/xlink" x="0px" y="0px"
	 width="250.667px" height="20.333px" viewBox="0 0 250.667 20.333" enable-background="new 0 0 250.667 20.333"
	 xml:space="preserve">
<g>
	<path fill="#FFFFFF" d="M126.707,16.693c-0.695,0.742-1.932,0.714-2.76-0.063L112.543,5.937c-0.828-0.777-0.937-2.007-0.241-2.749
		l0,0c0.694-0.741,1.93-0.712,2.758,0.064l11.402,10.692C127.292,14.721,127.4,15.954,126.707,16.693L126.707,16.693z"/>
	<path fill="#FFFFFF" d="M123.946,16.292c-0.653-0.778-0.479-2.002,0.391-2.731l11.968-10.057c0.868-0.73,2.104-0.692,2.758,0.086
		l0,0c0.653,0.777,0.479,2-0.392,2.731l-11.967,10.056C125.833,17.107,124.599,17.07,123.946,16.292L123.946,16.292z"/>
	<path fill="#FFFFFF" d="M249.667,3.5c0,0.978-1.344,1.771-3,1.771h-107c-1.658,0-3-0.793-3-1.771l0,0c0-0.979,1.342-1.771,3-1.771
		h107C248.324,1.729,249.667,2.521,249.667,3.5L249.667,3.5z"/>
	<path fill="#FFFFFF" d="M114.667,3.833c0,0.978-1.344,1.771-3,1.771h-107c-1.657,0-3-0.793-3-1.771s1.342-1.771,3-1.771
		c35.731-0.011,71.16-0.004,107.001,0C113.323,2.062,114.667,2.855,114.667,3.833z"/>
</g>
</svg>
