<?xml version="1.0" encoding="utf-8"?>
<!-- Generator: Adobe Illustrator 15.0.0, SVG Export Plug-In . SVG Version: 6.00 Build 0)  -->
<!DOCTYPE svg PUBLIC "-//W3C//DTD SVG 1.1//EN" "http://www.w3.org/Graphics/SVG/1.1/DTD/svg11.dtd">
<svg version="1.1" id="图层_1" xmlns="http://www.w3.org/2000/svg" xmlns:xlink="http://www.w3.org/1999/xlink" x="0px" y="0px"
	 width="20.333px" height="54.667px" viewBox="0 0 20.333 54.667" enable-background="new 0 0 20.333 54.667" xml:space="preserve">
<g>
	<circle fill="#FF9E98" cx="10.499" cy="10.5" r="3.834"/>
	<path fill="#696B76" d="M12.333,52.25c0,0.967-0.783,1.75-1.75,1.75l0,0c-0.967,0-1.75-0.783-1.75-1.75v-26
		c0-0.967,0.783-1.75,1.75-1.75l0,0c0.967,0,1.75,0.783,1.75,1.75V52.25z"/>
	<path fill="#FF9E98" d="M10.291,1.667c-1.407,0-2.733,0.332-3.92,0.908C6.207,2.833,6.749,5.041,8.184,5.586
		c0.649-0.27,1.36-0.42,2.107-0.42c3.038,0,5.5,2.462,5.5,5.5s-2.462,5.5-5.5,5.5s-5.5-2.462-5.5-5.5
		c0-0.36,0.037-0.712,0.104-1.053C4.749,9.416,4.249,9.083,3.79,8.916C2.809,8.559,2.624,8.583,1.579,8.442
		c-0.182,0.713-0.288,1.455-0.288,2.225c0,4.971,4.029,9,9,9s9-4.029,9-9S15.262,1.667,10.291,1.667z"/>
</g>
</svg>
