<?xml version="1.0" encoding="utf-8"?>
<!-- Generator: Adobe Illustrator 15.0.0, SVG Export Plug-In . SVG Version: 6.00 Build 0)  -->
<!DOCTYPE svg PUBLIC "-//W3C//DTD SVG 1.1//EN" "http://www.w3.org/Graphics/SVG/1.1/DTD/svg11.dtd">
<svg version="1.1" id="图层_1" xmlns="http://www.w3.org/2000/svg" xmlns:xlink="http://www.w3.org/1999/xlink" x="0px" y="0px"
	 width="20.333px" height="54.667px" viewBox="0 0 20.333 54.667" enable-background="new 0 0 20.333 54.667" xml:space="preserve">
<g>
	<path fill="#696B76" d="M12,51.917c0,0.967-0.783,1.75-1.75,1.75l0,0c-0.967,0-1.75-0.783-1.75-1.75v-26
		c0-0.967,0.783-1.75,1.75-1.75l0,0c0.967,0,1.75,0.783,1.75,1.75V51.917z"/>
	<path fill="#FFF8D7" d="M10,1.167c-4.972,0-9,4.028-9,9c0,4.971,4.028,9,9,9c4.971,0,9-4.029,9-9C19,5.196,14.97,1.167,10,1.167z
		 M10,15.667c-3.039,0-5.5-2.463-5.5-5.5c0-3.039,2.461-5.5,5.5-5.5c3.037,0,5.5,2.461,5.5,5.5C15.5,13.205,13.038,15.667,10,15.667
		z"/>
	<circle fill="#FFF6CC" cx="10.167" cy="10.167" r="3.834"/>
</g>
</svg>
