<?xml version="1.0" encoding="utf-8"?>
<!-- Generator: Adobe Illustrator 15.0.0, SVG Export Plug-In . SVG Version: 6.00 Build 0)  -->
<!DOCTYPE svg PUBLIC "-//W3C//DTD SVG 1.1//EN" "http://www.w3.org/Graphics/SVG/1.1/DTD/svg11.dtd">
<svg version="1.1" id="图层_1" xmlns="http://www.w3.org/2000/svg" xmlns:xlink="http://www.w3.org/1999/xlink" x="0px" y="0px"
	 width="20.333px" height="88.667px" viewBox="0 0 20.333 88.667" enable-background="new 0 0 20.333 88.667" xml:space="preserve">
<g>
	<path fill="#696B76" d="M12,28.417c0,0.966-0.783,1.75-1.75,1.75l0,0c-0.967,0-1.75-0.784-1.75-1.75v-26
		c0-0.966,0.783-1.75,1.75-1.75l0,0c0.967,0,1.75,0.784,1.75,1.75V28.417z"/>
	<path fill="#696B76" d="M12,86.417c0,0.967-0.783,1.75-1.75,1.75l0,0c-0.967,0-1.75-0.783-1.75-1.75v-26
		c0-0.967,0.783-1.75,1.75-1.75l0,0c0.967,0,1.75,0.783,1.75,1.75V86.417z"/>
	<path fill="#FFC797" d="M10,35.667c-4.971,0-9,4.029-9,9s4.029,9,9,9s9-4.029,9-9S14.97,35.667,10,35.667z M10,50.167
		c-3.038,0-5.5-2.463-5.5-5.5c0-3.038,2.462-5.5,5.5-5.5s5.5,2.462,5.5,5.5C15.5,47.704,13.038,50.167,10,50.167z"/>
	<circle fill="#FFC797" cx="10.166" cy="44.667" r="3.834"/>
</g>
</svg>
