<?xml version="1.0" standalone="no"?><!DOCTYPE svg PUBLIC "-//W3C//DTD SVG 1.1//EN" "http://www.w3.org/Graphics/SVG/1.1/DTD/svg11.dtd"><svg t="1498181591223" class="icon" style="" viewBox="0 0 1024 1024" version="1.1" xmlns="http://www.w3.org/2000/svg" p-id="6682" xmlns:xlink="http://www.w3.org/1999/xlink" width="24" height="24"><defs><style type="text/css"></style></defs><path d="M877.568 154.112h-67.072v-86.016c0-19.968-15.872-35.84-35.84-35.84h-2.56c-19.968 0-35.84 15.872-35.84 35.84v86.016h-445.44v-86.016c0-19.968-15.872-35.84-35.84-35.84h-2.56c-19.968 0-35.84 15.872-35.84 35.84v86.016h-70.144c-62.464 0-113.664 50.688-113.664 113.664v611.328c0 62.464 50.688 113.664 113.664 113.664h730.624c62.464 0 113.664-50.688 113.664-113.664V267.264c0-62.464-50.688-113.152-113.152-113.152z m41.984 763.904h-813.568v-506.368h813.568v506.368z m0-582.144h-813.568V225.28h813.568v110.592z" fill="#2c2c2c" p-id="6683"></path><path d="M415.232 850.944c6.144 6.144 14.848 9.728 23.04 9.728 5.632 0 11.264-1.536 16.384-4.608 3.072-1.536 5.632-3.584 8.192-5.632l330.24-330.24c12.8-12.8 12.8-33.28 0-46.08s-33.28-12.8-46.08 0l-308.224 308.224-156.16-156.16c-12.8-12.8-33.28-12.8-46.08 0s-12.8 33.28 0 46.08l178.688 178.688z" fill="#2c2c2c" p-id="6684"></path></svg>