<?xml version="1.0" standalone="no"?><!DOCTYPE svg PUBLIC "-//W3C//DTD SVG 1.1//EN" "http://www.w3.org/Graphics/SVG/1.1/DTD/svg11.dtd"><svg t="1498459986528" class="icon" style="" viewBox="0 0 1024 1024" version="1.1" xmlns="http://www.w3.org/2000/svg" p-id="8133" xmlns:xlink="http://www.w3.org/1999/xlink" width="16" height="16"><defs><style type="text/css"></style></defs><path d="M416.324 166.915c-27.033 0-49.152 22.118-49.152 49.152 0 27.033 22.119 49.152 49.152 49.152 27.034 0 49.152-22.119 49.152-49.152 0-27.034-21.708-49.152-49.152-49.152zM613.752 265.219c27.033 0 49.152-22.119 49.152-49.152 0-27.034-22.119-49.152-49.152-49.152-27.034 0-49.152 22.118-49.152 49.152 0 27.033 21.708 49.152 49.152 49.152zM416.324 363.932c-27.033 0-49.152 22.119-49.152 49.152 0 27.034 22.119 49.152 49.152 49.152 27.034 0 49.152-22.118 49.152-49.152 0-27.033-21.708-49.152-49.152-49.152zM613.752 363.932c-27.034 0-49.152 22.119-49.152 49.152 0 27.034 22.118 49.152 49.152 49.152 27.033 0 49.152-22.118 49.152-49.152 0-27.033-22.119-49.152-49.152-49.152zM416.324 560.95c-27.033 0-49.152 22.118-49.152 49.152s22.119 49.152 49.152 49.152c27.034 0 49.152-22.118 49.152-49.152s-21.708-49.152-49.152-49.152zM613.752 560.95c-27.034 0-49.152 22.118-49.152 49.152s22.118 49.152 49.152 49.152c27.033 0 49.152-22.118 49.152-49.152s-22.119-49.152-49.152-49.152zM416.324 758.377c-27.033 0-49.152 22.119-49.152 49.152 0 27.034 22.119 49.152 49.152 49.152 27.034 0 49.152-22.118 49.152-49.152 0-27.033-21.708-49.152-49.152-49.152zM613.752 758.377c-27.034 0-49.152 22.119-49.152 49.152 0 27.034 22.118 49.152 49.152 49.152 27.033 0 49.152-22.118 49.152-49.152 0-27.033-22.119-49.152-49.152-49.152z" p-id="8134" fill="#999999"></path></svg>