<?xml version="1.0" standalone="no"?><!DOCTYPE svg PUBLIC "-//W3C//DTD SVG 1.1//EN" "http://www.w3.org/Graphics/SVG/1.1/DTD/svg11.dtd"><svg t="1498134564838" class="icon" style="" viewBox="0 0 1024 1024" version="1.1" xmlns="http://www.w3.org/2000/svg" p-id="2238" xmlns:xlink="http://www.w3.org/1999/xlink" width="18" height="18"><defs><style type="text/css"></style></defs><path d="M932.359421 93.443605C932.36684 80.333521 925.176579 67.930141 913.608348 61.079437 902.225623 54.322479 887.266319 53.810479 875.408695 59.774197 834.470956 80.398423 794.238145 97.474704 716.288 97.474704 630.702377 97.474704 590.506667 76.900958 543.959188 53.082141 495.126261 28.145577 440.030609 0 335.315478 0 256.474899 0 208.391421 15.944113 175.296928 29.833014L164.789797 34.239099 160.545391 23.912563C154.572058 9.38907 140.369623 0 124.356638 0 102.837797 0 85.333333 17.01138 85.333333 37.924056L85.333333 980.198758C85.333333 1001.104222 102.837797 1018.11561 124.356638 1018.11561 145.868058 1018.11561 163.372522 1001.111433 163.372522 980.198758L163.372522 574.867831 169.338435 571.831887C215.047421 548.546704 256.296812 530.734874 335.308058 530.734874 420.812058 530.734874 460.992928 551.265353 507.518145 575.040901 556.224928 599.991887 611.335421 628.216788 716.280579 628.216788 811.401276 628.216788 864.775421 605.421972 911.278377 582.079099 924.278724 575.531267 932.359421 562.608676 932.359421 548.337578L932.359421 93.443605Z" p-id="2239" fill="#eeb173"></path></svg>