<?xml version="1.0" standalone="no"?><!DOCTYPE svg PUBLIC "-//W3C//DTD SVG 1.1//EN" "http://www.w3.org/Graphics/SVG/1.1/DTD/svg11.dtd"><svg t="1499245657274" class="icon" style="" viewBox="0 0 1024 1024" version="1.1" xmlns="http://www.w3.org/2000/svg" p-id="4196" xmlns:xlink="http://www.w3.org/1999/xlink" width="40" height="40"><defs><style type="text/css"></style></defs><path d="M66.56 168.96h194.56v56.32c0 15.36 15.36 30.72 30.72 30.72s30.72-15.36 30.72-30.72v-56.32h245.76v56.32c0 15.36 15.36 30.72 30.72 30.72s30.72-15.36 30.72-30.72v-56.32h168.96v281.6h66.56v-281.6c0-35.84-30.72-66.56-66.56-66.56H634.88V40.96c0-15.36-15.36-30.72-30.72-30.72s-30.72 15.36-30.72 30.72v61.44H322.56V40.96c0-15.36-15.36-30.72-30.72-30.72s-30.72 15.36-30.72 30.72v61.44H66.56C30.72 102.4 0 133.12 0 168.96v619.52c0 35.84 30.72 66.56 66.56 66.56h389.12v-66.56H66.56V168.96z m153.6 225.28z m-51.2 0c0 15.36 10.24 35.84 25.6 40.96 15.36 10.24 35.84 10.24 51.2 0s25.6-25.6 25.6-40.96-10.24-35.84-25.6-40.96c-15.36-10.24-35.84-10.24-51.2 0s-25.6 25.6-25.6 40.96m271.36 0z m-51.2 0c0 15.36 10.24 35.84 25.6 40.96 15.36 10.24 35.84 10.24 51.2 0s25.6-25.6 25.6-40.96-10.24-35.84-25.6-40.96c-15.36-10.24-35.84-10.24-51.2 0s-25.6 25.6-25.6 40.96m261.12 0z m-46.08 0c0 15.36 10.24 35.84 25.6 40.96 15.36 10.24 35.84 10.24 51.2 0s25.6-25.6 25.6-40.96-10.24-35.84-25.6-40.96c-15.36-10.24-35.84-10.24-51.2 0-20.48 10.24-25.6 25.6-25.6 40.96m-384 194.56z m-51.2 0c0 15.36 10.24 35.84 25.6 40.96 15.36 10.24 35.84 10.24 51.2 0s25.6-25.6 25.6-40.96-10.24-35.84-25.6-40.96c-15.36-10.24-35.84-10.24-51.2 0-15.36 5.12-25.6 25.6-25.6 40.96m271.36 0z m-51.2 0c0 15.36 10.24 35.84 25.6 40.96 15.36 10.24 35.84 10.24 51.2 0s25.6-25.6 25.6-40.96-10.24-35.84-25.6-40.96c-15.36-10.24-35.84-10.24-51.2 0-15.36 5.12-25.6 25.6-25.6 40.96m384-71.68c-138.24 0-250.88 112.64-250.88 250.88s112.64 250.88 250.88 250.88S1024 906.24 1024 768 911.36 517.12 773.12 517.12z m0 435.2c-102.4 0-184.32-81.92-184.32-184.32s81.92-184.32 184.32-184.32S957.44 665.6 957.44 768s-81.92 184.32-184.32 184.32z m97.28-220.16h-61.44v-71.68c0-15.36-15.36-30.72-30.72-30.72s-30.72 15.36-30.72 30.72V768c0 15.36 15.36 30.72 30.72 30.72h92.16c15.36 0 30.72-15.36 30.72-30.72 0-20.48-15.36-35.84-30.72-35.84z" p-id="4197" fill="#ffffff"></path></svg>