<?xml version="1.0" standalone="no"?><!DOCTYPE svg PUBLIC "-//W3C//DTD SVG 1.1//EN" "http://www.w3.org/Graphics/SVG/1.1/DTD/svg11.dtd"><svg t="1499245976474" class="icon" style="" viewBox="0 0 1024 1024" version="1.1" xmlns="http://www.w3.org/2000/svg" p-id="8066" xmlns:xlink="http://www.w3.org/1999/xlink" width="40" height="40"><defs><style type="text/css"></style></defs><path d="M51.2 870.4V102.4c0-30.72 20.48-51.2 51.2-51.2h614.4c30.72 0 51.2 20.48 51.2 51.2v358.4h51.2V102.4c0-56.32-46.08-102.4-102.4-102.4H102.4C46.08 0 0 46.08 0 102.4v768c0 56.32 46.08 102.4 102.4 102.4h460.8v-51.2H102.4c-30.72 0-51.2-20.48-51.2-51.2z" p-id="8067" fill="#ffffff"></path><path d="M793.6 512C665.6 512 563.2 614.4 563.2 742.4s102.4 230.4 230.4 230.4 230.4-102.4 230.4-230.4-102.4-230.4-230.4-230.4z m0 409.6c-97.28 0-179.2-81.92-179.2-179.2s81.92-179.2 179.2-179.2 179.2 81.92 179.2 179.2-81.92 179.2-179.2 179.2z" p-id="8068" fill="#ffffff"></path><path d="M896 716.8H819.2v-76.8c0-15.36-10.24-25.6-25.6-25.6s-25.6 10.24-25.6 25.6v102.4c0 15.36 10.24 25.6 25.6 25.6h102.4c15.36 0 25.6-10.24 25.6-25.6s-10.24-25.6-25.6-25.6zM640 256h-460.8c-15.36 0-25.6 10.24-25.6 25.6s10.24 25.6 25.6 25.6h460.8c15.36 0 25.6-10.24 25.6-25.6s-10.24-25.6-25.6-25.6zM665.6 435.2c0-15.36-10.24-25.6-25.6-25.6h-460.8c-15.36 0-25.6 10.24-25.6 25.6s10.24 25.6 25.6 25.6h460.8c15.36 0 25.6-10.24 25.6-25.6zM512 588.8c0-15.36-10.24-25.6-25.6-25.6h-307.2c-15.36 0-25.6 10.24-25.6 25.6s10.24 25.6 25.6 25.6h307.2c15.36 0 25.6-10.24 25.6-25.6zM179.2 716.8c-15.36 0-25.6 10.24-25.6 25.6s10.24 25.6 25.6 25.6h204.8c15.36 0 25.6-10.24 25.6-25.6s-10.24-25.6-25.6-25.6h-204.8z" p-id="8069" fill="#ffffff"></path></svg>