<svg class="icon" style="width: 32; height: 32; vertical-align: middle; fill: currentcolor; overflow: hidden; font-size: 32px;" viewBox="0 0 1024 1024" version="1.1" xmlns="http://www.w3.org/2000/svg" p-id="1530"><path d="M957.514773 97.68481c0-0.044002-0.00307-0.088004-0.00307-0.132006 0.002047-0.851391-0.040932-1.698688-0.107447-2.541893-0.019443-0.242524-0.045025-0.483001-0.069585-0.724501-0.073678-0.709151-0.170892-1.414209-0.293689-2.114151-0.033769-0.195451-0.059352-0.391926-0.097214-0.587378-0.163729-0.844228-0.363274-1.680269-0.595564-2.505054-0.071631-0.254803-0.157589-0.50449-0.23536-0.757247-0.183172-0.590448-0.381693-1.174756-0.599657-1.752924-0.11461-0.303922-0.227174-0.606821-0.350994-0.908696-0.298805-0.723477-0.6191-1.437745-0.971118-2.136663-0.13917-0.275269-0.294712-0.542352-0.441045-0.814552-0.289596-0.534166-0.592494-1.061169-0.913812-1.578961-0.185218-0.297782-0.373507-0.591471-0.568958-0.883113-0.385786-0.577145-0.792039-1.140986-1.217734-1.691525-0.132006-0.170892-0.254803-0.344854-0.390903-0.512676-0.537236-0.667196-1.112334-1.306762-1.706875-1.929955-0.180102-0.188288-0.36532-0.373507-0.551562-0.558725-0.579191-0.578168-1.180895-1.136893-1.810229-1.672082-0.072655-0.062422-0.135076-0.132006-0.208754-0.193405-0.021489-0.01842-0.045025-0.032746-0.066515-0.050142-0.589424-0.48914-1.195222-0.960885-1.825578-1.408069-0.12689-0.090051-0.258896-0.167822-0.38681-0.254803-0.227174-0.156566-0.457418-0.302899-0.686638-0.453325-0.568958-0.370437-1.14815-0.719384-1.735527-1.048889-0.242524-0.1361-0.480954-0.280386-0.725524-0.409322-0.743944-0.390903-1.500167-0.74906-2.266623-1.076518-0.299829-0.128937-0.604774-0.239454-0.907673-0.357134-0.538259-0.209778-1.080611-0.405229-1.62808-0.584308-0.324388-0.105401-0.64673-0.212848-0.974188-0.308015-0.789992-0.229221-1.585101-0.434905-2.388397-0.600681-0.225127-0.046049-0.451278-0.074701-0.677429-0.115634-0.656963-0.12075-1.316995-0.221034-1.980097-0.298805-0.289596-0.033769-0.578168-0.063445-0.868787-0.089028-0.74292-0.066515-1.486864-0.106424-2.232854-0.118704-0.12996-0.002047-0.25992-0.013303-0.38988-0.013303-0.87902-0.00307-1.75804 0.039909-2.636037 0.11154-0.225127 0.01842-0.448208 0.045025-0.672312 0.068562-0.704035 0.072655-1.406023 0.170892-2.105964 0.291642-0.210801 0.036839-0.422625 0.067538-0.632403 0.10847-0.855484 0.166799-1.705851 0.36532-2.549056 0.605797-0.198521 0.056282-0.39295 0.12689-0.590448 0.187265-0.638543 0.195451-1.27197 0.411369-1.901303 0.649799-0.304945 0.115634-0.607844 0.23536-0.910743 0.360204-0.569982 0.237407-1.1328 0.128937-1.691525 0.402159-0.252757 0.122797-0.509606-0.004093-0.759293-0.004093-0.001023 0-0.002047 0-0.002047 0L80.731696 504.062214c-10.29446 5.379521-16.71673 16.249079-16.634866 27.863604s6.652514 22.300912 17.021675 27.5341l223.288482 112.744807c15.273868 7.715729 33.911344 1.602498 41.621956-13.675464 7.709589-15.275915 1.576915-33.900088-13.700023-41.609677l-169.428807-85.509513 640.412648-334.594521L408.543743 670.043503c-4.647857 5.569856-7.192819 12.594853-7.192819 19.84907l0 236.621139c0 17.111726 13.871939 30.984688 30.984688 30.984688 17.111726 0 30.984688-13.871939 30.984688-30.984688l0-225.393423 416.434457-499.19537-94.860485 641.010259L561.461505 732.041532c-15.32708-7.605212-33.921577-1.347694-41.527812 13.979386-7.608282 15.329127-1.349741 33.921577 13.979386 41.529859l261.616416 129.845277c4.341888 2.15406 9.05933 3.229554 13.774725 3.229554 4.930289 0 9.859555-1.175779 14.351869-3.524267 8.789177-4.593622 14.84715-13.115716 16.299221-22.923082L957.182198 102.019535c0.041956-0.280386 0.061398-0.561795 0.095167-0.842181 0.035816-0.295735 0.072655-0.590448 0.099261-0.886183C957.455421 99.420337 957.509656 98.550527 957.514773 97.68481z" p-id="1531" fill="#2c2c2c"></path></svg>