<?xml version="1.0" standalone="no"?><!DOCTYPE svg PUBLIC "-//W3C//DTD SVG 1.1//EN" "http://www.w3.org/Graphics/SVG/1.1/DTD/svg11.dtd"><svg t="1498116191628" class="icon" style="" viewBox="0 0 1024 1024" version="1.1" xmlns="http://www.w3.org/2000/svg" p-id="19561" xmlns:xlink="http://www.w3.org/1999/xlink" width="18" height="18"><defs><style type="text/css"></style></defs><path d="M742.922 525.67l0 53.71-243.17 0-52.73 0 0-53.71L447.022 255.16l52.73 0 0 270.51L742.922 525.67 742.922 525.67zM514.402 1012c-111.32 0-210.931-33.2-298.82-100.59-86.92-66.4-146.49-151.36-177.74-255.86-13.67-7.81-20.51-19.53-20.51-35.149 0-23.44 17.58-41.021 40.04-41.021 16.6 0 32.23 10.74 37.11 27.351l13.67 0c21.49 93.75 70.32 170.89 145.51 232.42 75.2 60.55 162.11 90.819 260.741 90.819 223.64 5.86 421.879-192.38 416.02-417.97 5.859-226.56-192.38-423.83-416.02-418.95-133.791 0-254.88 62.5-333 167 41.99-2.93 73.24 7.81 92.77 34.18 26.37 68.36-42.97 83-108.4 82.03-20.51 0.97-43.94-0.979-69.34-4.89-49.8-8.78-63.47-10.74-74.21-13.67l-3.91-32.22-2.93-33.21c-0.98-20.5-1.95-57.61-0.98-81.05 2.93-23.439 6.84-58.6 15.63-74.22 4.88-8.79 9.76-16.6 16.6-24.41 12.7-16.61 34.18-10.75 58.59-3.91 20.51 21.48 27.35 51.76 20.51 91.8C218.502 83.29 359.132 12 514.402 12c133.789 0 262.699 56.64 351.569 146.48 88.86 88.87 144.53 217.78 144.53 353.52s-55.67 264.65-144.53 354.49C777.102 955.36 648.191 1012 514.402 1012L514.402 1012z" p-id="19562"></path></svg>