<?xml version="1.0" standalone="no"?><!DOCTYPE svg PUBLIC "-//W3C//DTD SVG 1.1//EN" "http://www.w3.org/Graphics/SVG/1.1/DTD/svg11.dtd"><svg t="1498115903883" class="icon" style="" viewBox="0 0 1024 1024" version="1.1" xmlns="http://www.w3.org/2000/svg" p-id="8594" xmlns:xlink="http://www.w3.org/1999/xlink" width="18" height="18"><defs><style type="text/css"></style></defs><path d="M723.627 530.563h-265.257c-21.674 0-39.18-17.506-39.18-39.18s17.506-39.18 39.18-39.18h265.258c21.674 0 39.18 17.506 39.18 39.18s-17.674 39.18-39.181 39.18v0zM723.627 685.617h-265.257c-21.674 0-39.18-17.506-39.18-39.18s17.506-39.18 39.18-39.18h265.258c21.674 0 39.18 17.506 39.18 39.18s-17.674 39.18-39.181 39.18v0zM903.689 813.659v-495.503c0-60.188-54.852-54.519-54.852-54.519s-327.446 0.334-309.94 0c-18.673 0.334-28.177-9.837-28.177-9.837s-13.004-22.508-36.513-57.854c-24.508-37.18-53.019-31.177-53.019-31.177h-241.082c-66.857 0-67.523 64.356-67.523 64.356v581.367c0 71.692 54.185 62.855 54.185 62.855h687.069c58.020 0 49.85-59.687 49.85-59.687v0 0zM854.506 784.317c0 22.174-17.839 40.013-40.013 40.013h-612.712c-22.174 0-40.013-17.839-40.013-40.013v-414.809c0-22.174 17.839-40.013 40.013-40.013h612.711c22.174 0 40.013 17.839 40.013 40.013 0.001 0 0.001 414.809 0.001 414.809zM270.971 491.383c0 23.112 18.736 41.848 41.848 41.848s41.848-18.736 41.848-41.848c0-23.112-18.736-41.848-41.848-41.848s-41.848 18.736-41.848 41.848v0zM270.971 646.437c0 23.112 18.736 41.848 41.848 41.848s41.848-18.736 41.848-41.848c0-23.112-18.736-41.848-41.848-41.848s-41.848 18.736-41.848 41.848v0z" p-id="8595" fill="#2c2c2c"></path></svg>