<?xml version="1.0" standalone="no"?><!DOCTYPE svg PUBLIC "-//W3C//DTD SVG 1.1//EN" "http://www.w3.org/Graphics/SVG/1.1/DTD/svg11.dtd"><svg t="1498180894143" class="icon" style="" viewBox="0 0 1024 1024" version="1.1" xmlns="http://www.w3.org/2000/svg" p-id="4484" xmlns:xlink="http://www.w3.org/1999/xlink" width="24" height="24"><defs><style type="text/css"></style></defs><path d="M909.608 973h-796c-28.122 0-51-22.879-51-51V124c0-28.122 22.878-51 51-51h147c17.673 0 32 14.327 32 32s-14.327 32-32 32h-134v772h770V137h-130c-17.673 0-32-14.327-32-32s14.327-32 32-32h143c28.121 0 51 22.878 51 51v798c0 28.121-22.879 51-51 51z" fill="#2c2c2c" p-id="4485"></path><path d="M99 293h812v64H99z" fill="#2c2c2c" p-id="4486"></path><path d="M429 103h152" fill="#2c2c2c" p-id="4487"></path><path d="M581 135H429c-17.673 0-32-14.327-32-32s14.327-32 32-32h152c17.673 0 32 14.327 32 32s-14.327 32-32 32z" fill="#2c2c2c" p-id="4488"></path><path d="M429 103h152" fill="#2c2c2c" p-id="4489"></path><path d="M581 135H429c-17.673 0-32-14.327-32-32s14.327-32 32-32h152c17.673 0 32 14.327 32 32s-14.327 32-32 32z" fill="#2c2c2c" p-id="4490"></path><path d="M345 44v112" fill="#2c2c2c" p-id="4491"></path><path d="M345 188c-17.673 0-32-14.327-32-32V44c0-17.673 14.327-32 32-32s32 14.327 32 32v112c0 17.673-14.327 32-32 32z" fill="#2c2c2c" p-id="4492"></path><path d="M345 44v112" fill="#2c2c2c" p-id="4493"></path><path d="M345 188c-17.673 0-32-14.327-32-32V44c0-17.673 14.327-32 32-32s32 14.327 32 32v112c0 17.673-14.327 32-32 32z" fill="#2c2c2c" p-id="4494"></path><path d="M669 44v112" fill="#2c2c2c" p-id="4495"></path><path d="M669 188c-17.673 0-32-14.327-32-32V44c0-17.673 14.327-32 32-32s32 14.327 32 32v112c0 17.673-14.327 32-32 32z" fill="#2c2c2c" p-id="4496"></path><path d="M669 44v112" fill="#2c2c2c" p-id="4497"></path><path d="M669 188c-17.673 0-32-14.327-32-32V44c0-17.673 14.327-32 32-32s32 14.327 32 32v112c0 17.673-14.327 32-32 32z" fill="#2c2c2c" p-id="4498"></path><path d="M411.735 541.036v-56.595h208.382v44.235c-17.205 16.913-34.694 41.199-52.476 72.857-17.78 31.659-31.333 65.306-40.657 100.938-9.323 35.637-13.914 67.475-13.77 95.518h-58.763c1.01-43.943 10.083-88.758 27.213-134.439 17.13-45.679 40.006-86.519 68.629-122.514H411.735z" fill="#2c2c2c" p-id="4499"></path></svg>