<?xml version="1.0" standalone="no"?><!DOCTYPE svg PUBLIC "-//W3C//DTD SVG 1.1//EN" "http://www.w3.org/Graphics/SVG/1.1/DTD/svg11.dtd"><svg t="1498136605217" class="icon" style="" viewBox="0 0 1024 1024" version="1.1" xmlns="http://www.w3.org/2000/svg" p-id="3662" xmlns:xlink="http://www.w3.org/1999/xlink" width="24" height="24"><defs><style type="text/css"></style></defs><path d="M827.9 960H194.1C122 960 63.5 901.5 63.5 829.4V194.6C63.5 122.5 122 64 194.1 64h633.8c72.1 0 130.6 58.5 130.6 130.6v634.8c0 72.1-58.5 130.6-130.6 130.6zM896 832V192c0-35.3-28.7-64-64-64H192c-35.3 0-64 28.7-64 64v640c0 35.3 28.7 64 64 64h640c35.3 0 64-28.7 64-64z" p-id="3663" fill="#2c2c2c"></path><path d="M288.5 353h-1c-17.4 0-31.5-14.1-31.5-31.5v-1c0-17.4 14.1-31.5 31.5-31.5h1c17.4 0 31.5 14.1 31.5 31.5v1c0 17.4-14.1 31.5-31.5 31.5zM736 353H416c-17.7 0-32-14.3-32-32s14.3-32 32-32h320c17.7 0 32 14.3 32 32s-14.3 32-32 32zM288.5 546h-1c-17.4 0-31.5-14.1-31.5-31.5v-1c0-17.4 14.1-31.5 31.5-31.5h1c17.4 0 31.5 14.1 31.5 31.5v1c0 17.4-14.1 31.5-31.5 31.5zM736 546H416c-17.7 0-32-14.3-32-32s14.3-32 32-32h320c17.7 0 32 14.3 32 32s-14.3 32-32 32z" p-id="3664" fill="#2c2c2c"></path><path d="M288.5 735h-1c-17.4 0-31.5-14.1-31.5-31.5v-1c0-17.4 14.1-31.5 31.5-31.5h1c17.4 0 31.5 14.1 31.5 31.5v1c0 17.4-14.1 31.5-31.5 31.5zM736 735H416c-17.7 0-32-14.3-32-32s14.3-32 32-32h320c17.7 0 32 14.3 32 32s-14.3 32-32 32z" p-id="3665" fill="#2c2c2c"></path></svg>