<?xml version="1.0" standalone="no"?><!DOCTYPE svg PUBLIC "-//W3C//DTD SVG 1.1//EN" "http://www.w3.org/Graphics/SVG/1.1/DTD/svg11.dtd"><svg t="1498114626386" class="icon" style="" viewBox="0 0 1024 1024" version="1.1" xmlns="http://www.w3.org/2000/svg" p-id="4501" xmlns:xlink="http://www.w3.org/1999/xlink" width="40" height="40"><defs><style type="text/css"></style></defs><path d="M869.2992 160.4096c-5.3248-3.21024-11.6736-4.81792-17.95072-4.81792a35.0976 35.0976 0 0 0-15.68768 3.65056c-36.18816 18.16576-71.6544 33.19808-140.3904 33.19808-75.52512 0-110.98624-18.17088-152.06912-39.04-43.04384-22.03136-91.64288-121.55904-184.02304-121.55904-69.53472 0-111.92832 14.08512-141.11744 26.27072l-9.33888 3.9424-3.65056-9.11872c-5.3248-12.76928-17.80224-21.08928-31.95904-21.08928-18.9696 0-34.43712 15.03232-34.43712 33.41824v893.54752c0 18.39104 17.80224 33.34656 36.77696 33.34656s36.77696-14.88384 36.77696-33.34656l0.1792-160.3584h0.10752l0.29184-262.98368c40.27904-20.50048 76.69248-36.19328 146.37568-36.19328 75.44832 0 110.91456 92.81536 151.92064 113.75616 42.9056 21.9648 91.57632 46.7712 184.17152 46.7712 83.9168 0 130.97984-19.9936 171.98592-40.57088 11.45344-5.76512 18.60608-17.14688 18.60608-29.7728V188.86656c-0.00512-11.52512-6.35392-22.47168-16.56832-28.45696z m-58.15296 402.78528c-29.11744 12.6208-62.17216 21.888-115.87584 21.888-74.79296 0-111.34976-18.74944-150.16448-38.59968C501.76 524.37504 452.65408 424.55552 359.17824 424.55552c-65.01376 0-108.50304 11.96544-145.78688 27.94496V141.14816l24.3712-10.28608 9.05216-3.79392c24.2944-10.14272 56.62208-20.5056 112.36864-20.5056 74.50112 0 111.1296 93.47584 150.6816 113.68448 43.26912 22.03648 92.30336 46.91968 185.41056 46.91968 49.03424 0 85.66784-6.784 115.87584-16.5632v312.59136z" fill="#2c2c2c" p-id="4502"></path></svg>