<?xml version="1.0" encoding="utf-8"?>
<!-- Generator: Adobe Illustrator 15.0.0, SVG Export Plug-In . SVG Version: 6.00 Build 0)  -->
<!DOCTYPE svg PUBLIC "-//W3C//DTD SVG 1.1//EN" "http://www.w3.org/Graphics/SVG/1.1/DTD/svg11.dtd">
<svg version="1.1" id="图层_1" xmlns="http://www.w3.org/2000/svg" xmlns:xlink="http://www.w3.org/1999/xlink" x="0px" y="0px"
	 width="24px" height="24px" viewBox="0 0 24 24" enable-background="new 0 0 24 24" xml:space="preserve">
<path fill="none" d="M0,0h24v24H0V0z"/>
<path fill="#00BCD4" d="M19,3h-4.18C14.4,1.84,13.3,1,12,1S9.6,1.84,9.18,3H5C3.9,3,3,3.9,3,5v14c0,1.1,0.9,2,2,2h14
	c1.1,0,2-0.9,2-2V5C21,3.9,20.1,3,19,3z M12,3c0.55,0,1,0.45,1,1s-0.45,1-1,1s-1-0.45-1-1S11.45,3,12,3z M14,17H7v-2h7V17z M17,13H7
	v-2h10V13z M17,9H7V7h10V9z"/>
</svg>
